<?xml version="1.0" encoding="utf-8"?>
<!-- Generator: Adobe Illustrator 26.0.1, SVG Export Plug-In . SVG Version: 6.00 Build 0)  -->
<svg version="1.1" id="Layer_1" xmlns="http://www.w3.org/2000/svg" xmlns:xlink="http://www.w3.org/1999/xlink" x="0px" y="0px"
	 viewBox="0 0 537.2 274" style="enable-background:new 0 0 537.2 274;" xml:space="preserve">
<style type="text/css">
	.st0{display:none;}
	.st1{display:inline;opacity:0.11;}
	.st2{fill:url(#SVGID_1_);}
	.st3{display:inline;}
	.st4{fill:url(#SVGID_00000124870181847834605950000004104087209559188141_);}
	.st5{fill:none;}
	.st6{fill:url(#SVGID_00000052812629159323707280000000410460548029451697_);}
	.st7{fill:#FFFFFF;}
	.st8{fill:#231F20;}
	.st9{fill:url(#SVGID_00000163791235205123069700000002210432981248453820_);}
	.st10{fill:url(#SVGID_00000015339169498034989930000006507813268023543197_);}
	.st11{fill:url(#SVGID_00000139265830113517370390000005412711576917413555_);}
	.st12{fill:url(#SVGID_00000165917124532826200350000015284699751961421203_);}
	.st13{fill:url(#SVGID_00000096022717980030688460000017510819472840092827_);}
	.st14{fill:url(#SVGID_00000123407427443601303750000008811030099781202349_);}
	.st15{fill:url(#SVGID_00000170999549461148489260000013480202680286035364_);}
	.st16{fill:url(#SVGID_00000039104254816164273300000006322645060573997975_);}
	.st17{fill:url(#SVGID_00000097481232654333564150000016704736249668363445_);}
	.st18{fill:url(#SVGID_00000111889225079174123720000009356097822468447125_);}
	.st19{fill:url(#SVGID_00000071541134349989389300000013871500992437297036_);}
	.st20{fill:#161616;}
	.st21{fill:url(#SVGID_00000026876544608376002830000012710702348714888096_);}
	.st22{fill:url(#SVGID_00000033330290429825124040000011829561341468704164_);}
	.st23{fill:url(#SVGID_00000011006949179940290520000012555517889284921226_);}
	.st24{fill:url(#SVGID_00000160158582440888268200000015507728482761742525_);}
	.st25{fill:url(#SVGID_00000066514627017017444700000016211145791417382548_);}
	.st26{fill:url(#SVGID_00000020384207840956873540000017640516786360930731_);}
	.st27{fill:url(#SVGID_00000083083136357557533460000000938906661644127158_);}
	.st28{fill:url(#SVGID_00000049903261562230550810000012233987805563288974_);}
	.st29{fill:url(#SVGID_00000066482758957127539820000004401343389160551871_);}
	.st30{fill:url(#SVGID_00000100361777065076571130000005312806438471765658_);}
	.st31{fill:url(#SVGID_00000078723867781887297100000001709429141362643637_);}
	.st32{fill:url(#SVGID_00000150104453730493950520000006559158737868657599_);}
	.st33{fill:url(#SVGID_00000106834306540885056140000004828057558621711022_);}
	.st34{fill:url(#SVGID_00000117678178252245397150000010651081199683688639_);}
	.st35{fill:url(#SVGID_00000065753124746829576520000011716368820536033166_);}
	.st36{fill:url(#SVGID_00000155825764747434163720000005489356857865412770_);}
	.st37{fill:url(#SVGID_00000160148701738818031470000006738684454973128578_);}
	.st38{fill:url(#SVGID_00000129916768613386840000000009292232127483388305_);}
	.st39{fill:url(#SVGID_00000042004860681493003760000003749502784061421454_);}
	.st40{fill:url(#SVGID_00000135689306903728202460000003545154530317848236_);}
	.st41{fill:url(#SVGID_00000088096415657622355260000009230237580438537907_);}
	.st42{fill:url(#SVGID_00000100371023886794578760000004353655188661642150_);}
	.st43{fill:url(#SVGID_00000083070836394883344110000010379172096748890036_);}
	.st44{fill:url(#SVGID_00000000223139667757580410000014146286036930609311_);}
	.st45{fill:url(#SVGID_00000130622678678216058570000003684041379095020447_);}
	.st46{fill:url(#SVGID_00000052099406192107288990000005313010428902498461_);}
	.st47{fill:url(#SVGID_00000139984353009140009050000005171729519664525954_);}
	.st48{fill:url(#SVGID_00000032637602383080629440000015556629298491672713_);}
	.st49{fill:url(#SVGID_00000104669003228799486480000015997451742751137205_);}
	.st50{fill:url(#SVGID_00000127754111537122885820000010242344398551254400_);}
	.st51{fill:url(#SVGID_00000095303347724482002980000000448943849967218587_);}
	.st52{fill:url(#SVGID_00000121241736397030226130000014219707306019595683_);}
	.st53{fill:url(#SVGID_00000001654343147082551360000012618786971371971215_);}
	.st54{fill:url(#SVGID_00000044161001718469765670000014255061150753365392_);}
	.st55{fill:url(#SVGID_00000152230028305395355950000014496958276428835978_);}
	.st56{fill:url(#SVGID_00000061471448194854609240000016654447681446882187_);}
	.st57{fill:url(#SVGID_00000028322649700835714930000000540332043210526143_);}
	.st58{fill:url(#SVGID_00000082359025931455085810000015289125214716052663_);}
	.st59{fill:url(#SVGID_00000089551538974045843530000016854210856691215496_);}
	.st60{fill:url(#SVGID_00000130635449458682966790000006445361697999025582_);}
	.st61{fill:url(#SVGID_00000098901006066567480320000015759683172524496517_);}
	.st62{fill:url(#SVGID_00000096023350810850118850000012126360800249242764_);}
	.st63{fill:url(#SVGID_00000095311993939073081530000005252856049966628246_);}
</style>
<g>
	<g class="st0">
		<g class="st1">
			
				<linearGradient id="SVGID_1_" gradientUnits="userSpaceOnUse" x1="-382.8" y1="-36.4256" x2="249.4" y2="-36.4256" gradientTransform="matrix(1 0 0 -1 0 -51.2756)">
				<stop  offset="0" style="stop-color:#3483AE"/>
				<stop  offset="0.6575" style="stop-color:#85599D"/>
				<stop  offset="0.8408" style="stop-color:#885CA0"/>
				<stop  offset="1" style="stop-color:#B283BA"/>
			</linearGradient>
			<rect x="-382.8" y="-67.8" class="st2" width="632.2" height="105.9"/>
		</g>
		<g class="st3">
			<g>
				<g>
					
						<linearGradient id="SVGID_00000001638080241559431050000014067965849274031776_" gradientUnits="userSpaceOnUse" x1="-182.7" y1="-55.3756" x2="-71.7" y2="-55.3756" gradientTransform="matrix(1 0 0 -1 0 -51.2756)">
						<stop  offset="0" style="stop-color:#3483AE"/>
						<stop  offset="0.6575" style="stop-color:#85599D"/>
						<stop  offset="0.8408" style="stop-color:#885CA0"/>
						<stop  offset="1" style="stop-color:#B283BA"/>
					</linearGradient>
					<path style="fill:url(#SVGID_00000001638080241559431050000014067965849274031776_);" d="M-77.7,26.3h-99.1
						c-3.3,0-5.9-1-5.9-2.3v-39.8c0-1.3,2.7-2.3,5.9-2.3h99.2c3.3,0,5.9,1,5.9,2.3V24C-71.8,25.3-74.5,26.3-77.7,26.3z M-176.9-17.7
						c-2.8,0-5.1,0.9-5.1,2V24c0,1.1,2.3,2,5.1,2h99.2c2.8,0,5.1-0.9,5.1-2v-39.8c0-1.1-2.3-2-5.1-2L-176.9-17.7L-176.9-17.7z"/>
				</g>
			</g>
			<g>
				<rect x="487.6" y="646.6" class="st5" width="427" height="16.8"/>
				<text transform="matrix(-2.1443 0 0 1 817.8926 653.9523)" style="fill:#9B4D98; font-family:'ArialMT'; font-size:10.3006px;">You can beneft if you are</text>
			</g>
			<g>
				<g>
					
						<linearGradient id="SVGID_00000166651634034769964170000001640762290573445798_" gradientUnits="userSpaceOnUse" x1="-46.1" y1="-55.6756" x2="64.9" y2="-55.6756" gradientTransform="matrix(1 0 0 -1 0 -51.2756)">
						<stop  offset="0" style="stop-color:#3483AE"/>
						<stop  offset="0.6575" style="stop-color:#85599D"/>
						<stop  offset="0.8408" style="stop-color:#885CA0"/>
						<stop  offset="1" style="stop-color:#B283BA"/>
					</linearGradient>
					<path style="fill:url(#SVGID_00000166651634034769964170000001640762290573445798_);" d="M59,26.6h-99.2c-3.3,0-5.9-1-5.9-2.3
						v-39.8c0-1.3,2.7-2.3,5.9-2.3H59c3.3,0,5.9,1,5.9,2.3v39.8C64.9,25.5,62.3,26.6,59,26.6z M-40.1-17.5c-2.8,0-5.1,0.9-5.1,2
						v39.8c0,1.1,2.3,2,5.1,2H59c2.8,0,5.1-0.9,5.1-2v-39.8c0-1.1-2.3-2-5.1-2H-40.1z"/>
				</g>
			</g>
		</g>
	</g>
</g>
<g>
	<path class="st7" d="M236,80c0,0-12.4-0.7-14.4-0.7c-2,0-2.7,2.2-2.4,4.4c0.3,2.1,2.2,4.7,2.3,5.6c0.1,0.9,0.4,7.1-5.3,7.1
		s-4.5-9.1-3.7-10.3c0.8-1.3,1-3.5,1-4.4c0-1-1-2.6-1.7-2.6c-0.8,0-14.4,1.3-14.4,1.3s1.1,7.9,1.2,12c0.1,4.1-0.8,6.3-2.3,7.5
		c-1.5,1.1-4.7-1.2-6.3-1.9c-1.7-0.7-4,0.9-4.4,2.7c-0.4,1.8-0.1,7.1,0.9,8.8c1,1.7,3.6,2.8,5.6,1.5c2.1-1.4,3.3-1.8,5-1.2
		c1.7,0.6,0.9,18.5,0.9,18.5l11.9,1.3c0,0,2,0.6,2.6-1.3c0.6-1.9-1.2-6.7-1-9.2c0.1-2.5,2.2-7,5.1-6.7c2.9,0.3,4.8,3.1,4.8,4.8
		c0,1.7-0.2,5.4-1.3,7.6c-1.2,2.2-0.1,5.3,2,5.6c2.2,0.2,14-2.1,14-2.1s0.9-13.4,0.8-15.3c-0.1-1.9-1.5-5.8-3.9-4.2
		c-2.3,1.6-6.4,4.3-8.3,1.9c-1.9-2.4-2-7.3-1.3-8.7c0.6-1.4,1.7-3.9,4.3-3.9s4,2.2,5,2.9c1,0.7,4,0.1,4.2-2.2
		C237,96.3,236,80,236,80z"/>
	<path class="st7" d="M301.8,95.4c-0.2-1.8-3.5-6.6-6.1-5.4c-2.6,1.2-3.2,4.3-4.6,4.1c-1.4-0.1-3.3-1.9-3.6-5.4
		c-0.3-3.4-0.4-15.4-0.4-16.1l0,0c0,0-11.3,1.1-13.9,1.7c-2.6,0.6-2.1,3.5-1.9,4.5c0.2,1,2.5,2.9,2.9,5.6c0.4,2.7,0.6,7.3-3.7,8.2
		c-4.2,0.9-6.1-1.4-6.7-4.9c-0.6-3.5,1.5-6.3,1.7-8.4c0.2-2.1-1.8-3.1-3.3-3.2c-1.6-0.1-12.7,2.8-12.7,2.8s2.6,16,2.6,18.3
		c0,2.3-2.9,3.4-4,2.8c-1.1-0.6-2.7-2.5-5.2-2.1s-3.4,3-3.9,4.5c-0.5,1.5,0,6.3,2.2,8.4c2.1,2.1,6-1.2,8.1-3.1
		c2.1-2,3.9,1.7,4.2,3.6c0.3,1.9,0.7,15.3,0.7,15.3s11.2-2.4,13.2-2.8c2-0.5,3.4,1.8,2.9,3.6c-0.5,1.8-1.8,5.8-1.4,7.7
		c0.3,1.9,2.6,5.8,5.6,5.3c3-0.4,5-4.6,4.5-7.1c-0.5-2.5-2-3.7-2.6-5.6c-0.6-1.9-0.4-4.3,1.1-5.2c1.6-0.9,13.2-2.3,13.2-2.3
		s-1.5-15.1-1.5-15.7c0-0.6,0.4-3.9,2.7-3.3c2.4,0.5,6.4,2.6,8.1,0.2C301.4,99.1,302,97.2,301.8,95.4z"/>
	<g>
		<polygon class="st8" points="353.3,38.4 336.1,59.3 334.1,67.7 340.8,83.1 341.3,98 325.2,102 315.1,97.3 307.3,47.3 322.6,28.1 
					"/>
		<polygon class="st8" points="370.4,62.5 365.9,67.3 365.9,75.9 371.8,84.5 374.5,93.3 366.9,95.3 361.7,86.5 353.1,72.2 
			354.6,59.4 358.3,53 		"/>
		
			<linearGradient id="SVGID_00000136400340490755425600000003640783942778181509_" gradientUnits="userSpaceOnUse" x1="1531.7183" y1="3698.9363" x2="1528.649" y2="3727.9551" gradientTransform="matrix(0.2886 0.9574 -0.9574 0.2886 3493.885 -2483.6116)">
			<stop  offset="0.5531" style="stop-color:#FFFFFF"/>
			<stop  offset="0.9944" style="stop-color:#666666"/>
		</linearGradient>
		<polygon style="fill:url(#SVGID_00000136400340490755425600000003640783942778181509_);" points="377.7,65 366,70.2 353.3,58.6 
			358.1,42.9 375.7,43.9 		"/>
		
			<linearGradient id="SVGID_00000049188674925265459280000008444783643948779707_" gradientUnits="userSpaceOnUse" x1="1562.3773" y1="3715.5" x2="1527.3997" y2="3728.0227" gradientTransform="matrix(0.2886 0.9574 -0.9574 0.2886 3493.885 -2483.6116)">
			<stop  offset="0.5531" style="stop-color:#FFFFFF"/>
			<stop  offset="0.9944" style="stop-color:#9E9E9E"/>
		</linearGradient>
		<polygon style="fill:url(#SVGID_00000049188674925265459280000008444783643948779707_);" points="364,65.9 375,54.3 378.9,63.3 		
			"/>
		
			<linearGradient id="SVGID_00000174563675812040555250000002647280264657680050_" gradientUnits="userSpaceOnUse" x1="1552.2345" y1="3779.8303" x2="1548.2563" y2="3735.7861" gradientTransform="matrix(0.2886 0.9574 -0.9574 0.2886 3493.885 -2483.6116)">
			<stop  offset="0.5531" style="stop-color:#FFFFFF"/>
			<stop  offset="0.9944" style="stop-color:#666666"/>
		</linearGradient>
		<polygon style="fill:url(#SVGID_00000174563675812040555250000002647280264657680050_);" points="366.9,74.4 351.7,65.9 
			360.6,94.1 374.4,85.8 		"/>
		
			<linearGradient id="SVGID_00000028313079856398313230000016369644923679066262_" gradientUnits="userSpaceOnUse" x1="1594.2419" y1="3717.4746" x2="1534.6259" y2="3738.8186" gradientTransform="matrix(0.2886 0.9574 -0.9574 0.2886 3493.885 -2483.6116)">
			<stop  offset="0.5531" style="stop-color:#FFFFFF"/>
			<stop  offset="0.9944" style="stop-color:#9E9E9E"/>
		</linearGradient>
		<polygon style="fill:url(#SVGID_00000028313079856398313230000016369644923679066262_);" points="370.8,86.4 362.8,71.9 366.6,74 
					"/>
		
			<linearGradient id="SVGID_00000054969553799634910090000014659439784024810654_" gradientUnits="userSpaceOnUse" x1="1576.5118" y1="3767.6382" x2="1571.8817" y2="3730.8691" gradientTransform="matrix(0.2886 0.9574 -0.9574 0.2886 3493.885 -2483.6116)">
			<stop  offset="0.5531" style="stop-color:#FFFFFF"/>
			<stop  offset="0.9944" style="stop-color:#9E9E9E"/>
		</linearGradient>
		<path style="fill:url(#SVGID_00000054969553799634910090000014659439784024810654_);" d="M365,93.3l12.7,13.2
			c0,0,2.5-12.4-2.2-15.7L365,93.3z"/>
		<polygon class="st8" points="362.1,41.3 359.8,49.9 353.5,64.8 353.1,72.2 357.1,80 361.5,88.4 365,98.2 361.5,102.6 351.6,92.2 
			338.9,81.6 335.3,70.6 335.2,59.7 342.9,48.7 343.8,42.1 		"/>
		
			<linearGradient id="SVGID_00000169546753598662597860000011135774161900845473_" gradientUnits="userSpaceOnUse" x1="1535.4398" y1="3719.2456" x2="1525.631" y2="3731.5066" gradientTransform="matrix(0.2886 0.9574 -0.9574 0.2886 3493.885 -2483.6116)">
			<stop  offset="0.5531" style="stop-color:#FFFFFF"/>
			<stop  offset="0.9944" style="stop-color:#808080"/>
		</linearGradient>
		<polygon style="fill:url(#SVGID_00000169546753598662597860000011135774161900845473_);" points="337,58.3 355.1,67.4 364.9,39.1 
			352.9,36.8 		"/>
		
			<linearGradient id="SVGID_00000118378549941793697300000003145379588057294752_" gradientUnits="userSpaceOnUse" x1="1559.1843" y1="3783.1321" x2="1541.7618" y2="3746.3269" gradientTransform="matrix(0.2886 0.9574 -0.9574 0.2886 3493.885 -2483.6116)">
			<stop  offset="0.5531" style="stop-color:#FFFFFF"/>
			<stop  offset="0.9944" style="stop-color:#808080"/>
		</linearGradient>
		<polygon style="fill:url(#SVGID_00000118378549941793697300000003145379588057294752_);" points="334.5,65.8 354.4,70 361.4,82.9 
			353.2,96.5 332.8,72.7 		"/>
		
			<linearGradient id="SVGID_00000090995709260041109520000004235267301882429826_" gradientUnits="userSpaceOnUse" x1="1552.5408" y1="3685.6921" x2="1569.8884" y2="3740.5737" gradientTransform="matrix(0.2886 0.9574 -0.9574 0.2886 3493.885 -2483.6116)">
			<stop  offset="0.5531" style="stop-color:#FFFFFF"/>
			<stop  offset="0.9944" style="stop-color:#808080"/>
		</linearGradient>
		<path style="fill:url(#SVGID_00000090995709260041109520000004235267301882429826_);" d="M362.1,85.8l-7.6,13.3l9.9,12.5
			C370.7,115.5,382.5,104.4,362.1,85.8z"/>
		
			<linearGradient id="SVGID_00000063627593003089483640000014186212964162276494_" gradientUnits="userSpaceOnUse" x1="1497.2838" y1="3713.5142" x2="1508.5233" y2="3756.7283" gradientTransform="matrix(0.2886 0.9574 -0.9574 0.2886 3493.885 -2483.6116)">
			<stop  offset="0.5531" style="stop-color:#FFFFFF"/>
			<stop  offset="0.9944" style="stop-color:#9E9E9E"/>
		</linearGradient>
		<polygon style="fill:url(#SVGID_00000063627593003089483640000014186212964162276494_);" points="356.7,37.1 337,63.1 313,40.3 
			330.8,25 		"/>
		
			<linearGradient id="SVGID_00000152244032047870811490000002502652822481809820_" gradientUnits="userSpaceOnUse" x1="1523.1362" y1="3798.2856" x2="1530.7079" y2="3758.833" gradientTransform="matrix(0.2886 0.9574 -0.9574 0.2886 3493.885 -2483.6116)">
			<stop  offset="0.5531" style="stop-color:#FFFFFF"/>
			<stop  offset="0.9944" style="stop-color:#9E9E9E"/>
		</linearGradient>
		<polygon style="fill:url(#SVGID_00000152244032047870811490000002502652822481809820_);" points="336.3,64.4 303.4,40.1 315,99 
			339.8,78.9 		"/>
		
			<linearGradient id="SVGID_00000119091654487132463220000016927207584156416941_" gradientUnits="userSpaceOnUse" x1="1576.2003" y1="3779.1904" x2="1561.5251" y2="3753.8687" gradientTransform="matrix(0.2886 0.9574 -0.9574 0.2886 3493.885 -2483.6116)">
			<stop  offset="0.5531" style="stop-color:#FFFFFF"/>
			<stop  offset="0.9944" style="stop-color:#9E9E9E"/>
		</linearGradient>
		<path style="fill:url(#SVGID_00000119091654487132463220000016927207584156416941_);" d="M340.3,79.9l-18.7,22.8l29.8,11.3
			c8.1,4.6,12.5-11.8,4-21.9C349.5,85.3,340.3,79.9,340.3,79.9z"/>
		<polygon class="st20" points="491.6,102.3 460.3,81.8 388,7.9 371.8,3 359.5,7.7 312.3,6.7 306.6,8.9 276.8,39.2 286.7,59.5 
			297.7,48.8 314,39.7 327.3,37.2 365.1,44.2 374.3,53.1 380.2,73.6 377.9,97.8 365.5,110 325.4,117.8 316.8,116.5 292.4,125.5 
			296.3,141.7 311.4,153.3 319,157.1 331.9,157 363.2,153.4 376.4,153.6 421,154.6 459.8,174.2 509.3,184.9 		"/>
		
			<linearGradient id="SVGID_00000170975346006292898700000002203265499286192569_" gradientUnits="userSpaceOnUse" x1="1480.6464" y1="3823.8503" x2="1529.276" y2="3810.5164" gradientTransform="matrix(0.2886 0.9574 -0.9574 0.2886 3493.885 -2483.6116)">
			<stop  offset="0.5531" style="stop-color:#FFFFFF"/>
			<stop  offset="0.9944" style="stop-color:#9E9E9E"/>
		</linearGradient>
		<path style="fill:url(#SVGID_00000170975346006292898700000002203265499286192569_);" d="M259.2,67.5c0,0-0.1,7.5,4.3,8
			c4.3,0.6,11.6,0.3,17.8-5.7l10.2-11.6l-12.2-25.8L259.2,67.5z"/>
		
			<linearGradient id="SVGID_00000168831791921974851900000016578498258099291306_" gradientUnits="userSpaceOnUse" x1="1448.7941" y1="3790.585" x2="1515.5016" y2="3772.5962" gradientTransform="matrix(0.2886 0.9574 -0.9574 0.2886 3493.885 -2483.6116)">
			<stop  offset="0.5531" style="stop-color:#FFFFFF"/>
			<stop  offset="0.9944" style="stop-color:#9E9E9E"/>
		</linearGradient>
		<polygon style="fill:url(#SVGID_00000168831791921974851900000016578498258099291306_);" points="280.7,31.2 297.1,53.4 319,40.4 
			310.4,4.4 		"/>
		
			<linearGradient id="SVGID_00000007400298293244576320000002406863632457652406_" gradientUnits="userSpaceOnUse" x1="1435.8655" y1="3717.573" x2="1543.1541" y2="3767.3301" gradientTransform="matrix(0.2886 0.9574 -0.9574 0.2886 3493.885 -2483.6116)">
			<stop  offset="0.5531" style="stop-color:#FFFFFF"/>
			<stop  offset="0.9944" style="stop-color:#9E9E9E"/>
		</linearGradient>
		<polygon style="fill:url(#SVGID_00000007400298293244576320000002406863632457652406_);" points="312,3.8 364.7,1.7 368.5,48.3 
			324.8,40.3 		"/>
		
			<linearGradient id="SVGID_00000163783565941692061090000014869291688637618316_" gradientUnits="userSpaceOnUse" x1="1622.7706" y1="3725.6924" x2="1601.6749" y2="3679.1956" gradientTransform="matrix(0.2886 0.9574 -0.9574 0.2886 3493.885 -2483.6116)">
			<stop  offset="0.5531" style="stop-color:#FFFFFF"/>
			<stop  offset="0.9944" style="stop-color:#9E9E9E"/>
		</linearGradient>
		<polygon style="fill:url(#SVGID_00000163783565941692061090000014869291688637618316_);" points="402.8,101.6 377.5,93.1 
			370.2,102.5 372.7,155 415.1,166.7 447,167.7 454.6,125.2 415.3,92.2 		"/>
		
			<linearGradient id="SVGID_00000174596644573010240840000013185098918292014015_" gradientUnits="userSpaceOnUse" x1="1549.9512" y1="3599.489" x2="1567.7242" y2="3766.8018" gradientTransform="matrix(0.2886 0.9574 -0.9574 0.2886 3493.885 -2483.6116)">
			<stop  offset="0.5531" style="stop-color:#FFFFFF"/>
			<stop  offset="0.9944" style="stop-color:#9E9E9E"/>
		</linearGradient>
		<path style="fill:url(#SVGID_00000174596644573010240840000013185098918292014015_);" d="M462.4,143.8l4-65.1
			c0,0-73.6-73.7-77.7-76.8C384.6-1.2,371,0.4,371,0.4l-0.8,49.2l7.4,28.5l38.2,29.6l4.1,14.4l26.7,18.7l1.8-7.8L462.4,143.8z"/>
		
			<linearGradient id="SVGID_00000020369540673579751470000008259946149576883616_" gradientUnits="userSpaceOnUse" x1="1635.2651" y1="3593.4978" x2="1718.4315" y2="3674.3298" gradientTransform="matrix(0.2886 0.9574 -0.9574 0.2886 3493.885 -2483.6116)">
			<stop  offset="0.5531" style="stop-color:#FFFFFF"/>
			<stop  offset="0.9944" style="stop-color:#9E9E9E"/>
		</linearGradient>
		<polygon style="fill:url(#SVGID_00000020369540673579751470000008259946149576883616_);" points="499.5,99 537.2,234.1 
			452.1,172.8 472.5,83.3 		"/>
		
			<linearGradient id="SVGID_00000142873921320607415320000017466153052021997493_" gradientUnits="userSpaceOnUse" x1="1689.1863" y1="3643.7476" x2="1669.0791" y2="3617.3567" gradientTransform="matrix(0.2886 0.9574 -0.9574 0.2886 3493.885 -2483.6116)">
			<stop  offset="0.5531" style="stop-color:#FFFFFF"/>
			<stop  offset="0.9944" style="stop-color:#9E9E9E"/>
		</linearGradient>
		<polygon style="fill:url(#SVGID_00000142873921320607415320000017466153052021997493_);" points="490.3,148.4 519.5,170.9 
			522.9,184.9 486.7,152.6 		"/>
		
			<linearGradient id="SVGID_00000093895934447717491860000000292229925729535652_" gradientUnits="userSpaceOnUse" x1="1624.2703" y1="3611.7771" x2="1646.5817" y2="3693.7329" gradientTransform="matrix(0.2886 0.9574 -0.9574 0.2886 3493.885 -2483.6116)">
			<stop  offset="0.5531" style="stop-color:#FFFFFF"/>
			<stop  offset="0.9944" style="stop-color:#9E9E9E"/>
		</linearGradient>
		
			<ellipse style="fill:url(#SVGID_00000093895934447717491860000000292229925729535652_);" cx="468.4" cy="136.5" rx="30.3" ry="38.4"/>
		
			<linearGradient id="SVGID_00000021093172825069014110000012964756099332118922_" gradientUnits="userSpaceOnUse" x1="1592.5999" y1="3625.7844" x2="1735.2734" y2="3716.824" gradientTransform="matrix(0.2886 0.9574 -0.9574 0.2886 3493.885 -2483.6116)">
			<stop  offset="0" style="stop-color:#FFFFFF"/>
			<stop  offset="1" style="stop-color:#000000"/>
		</linearGradient>
		
			<ellipse style="fill:url(#SVGID_00000021093172825069014110000012964756099332118922_);" cx="468.4" cy="136.5" rx="27.6" ry="34.8"/>
		
			<linearGradient id="SVGID_00000170259560351455318450000006597717706494159019_" gradientUnits="userSpaceOnUse" x1="1671.2825" y1="3706.7253" x2="1609.4031" y2="3614.0649" gradientTransform="matrix(0.2886 0.9574 -0.9574 0.2886 3493.885 -2483.6116)">
			<stop  offset="0.5531" style="stop-color:#FFFFFF"/>
			<stop  offset="0.9944" style="stop-color:#9E9E9E"/>
		</linearGradient>
		
			<ellipse style="fill:url(#SVGID_00000170259560351455318450000006597717706494159019_);" cx="468.4" cy="136.5" rx="23.8" ry="30.1"/>
		
			<linearGradient id="SVGID_00000051357131679619825500000007485204953391507890_" gradientUnits="userSpaceOnUse" x1="1595.2249" y1="3684.2661" x2="1617.4949" y2="3698.4766" gradientTransform="matrix(0.2886 0.9574 -0.9574 0.2886 3493.885 -2483.6116)">
			<stop  offset="0" style="stop-color:#FFFFFF"/>
			<stop  offset="1" style="stop-color:#000000"/>
		</linearGradient>
		<path style="fill:url(#SVGID_00000051357131679619825500000007485204953391507890_);" d="M426,119.8c-2.3,0.9-4.7-0.8-5.4-3.6
			c-0.7-2.9,0.6-5.9,2.9-6.8c2.3-0.9,4.7,0.8,5.4,3.6C429.6,115.9,428.3,118.9,426,119.8z"/>
		
			<linearGradient id="SVGID_00000106866768570036090800000017893121937394948759_" gradientUnits="userSpaceOnUse" x1="1605.7904" y1="3694.3303" x2="1599.1007" y2="3684.3132" gradientTransform="matrix(0.2886 0.9574 -0.9574 0.2886 3493.885 -2483.6116)">
			<stop  offset="0.5531" style="stop-color:#FFFFFF"/>
			<stop  offset="0.9944" style="stop-color:#9E9E9E"/>
		</linearGradient>
		
			<ellipse style="fill:url(#SVGID_00000106866768570036090800000017893121937394948759_);" cx="424.8" cy="114.6" rx="2.6" ry="3.3"/>
		
			<linearGradient id="SVGID_00000183234318890702937310000008497934100254530996_" gradientUnits="userSpaceOnUse" x1="1622.0908" y1="3779.9724" x2="1559.9547" y2="3752.6191" gradientTransform="matrix(0.2886 0.9574 -0.9574 0.2886 3493.885 -2483.6116)">
			<stop  offset="0.5531" style="stop-color:#FFFFFF"/>
			<stop  offset="0.9944" style="stop-color:#9E9E9E"/>
		</linearGradient>
		<path style="fill:url(#SVGID_00000183234318890702937310000008497934100254530996_);" d="M366,107l2.9,47.2l-38.7,6.1
			c0,0-7.8-27.2-7.8-32.6c0-5.4,1.8-13.9,1.8-13.9L366,107z"/>
		
			<linearGradient id="SVGID_00000004534667424821032410000007094853914201621926_" gradientUnits="userSpaceOnUse" x1="1570.1403" y1="3763.0828" x2="1583.7751" y2="3764.3691" gradientTransform="matrix(0.2886 0.9574 -0.9574 0.2886 3493.885 -2483.6116)">
			<stop  offset="0.5531" style="stop-color:#FFFFFF"/>
			<stop  offset="0.9944" style="stop-color:#9E9E9E"/>
		</linearGradient>
		<polygon style="fill:url(#SVGID_00000004534667424821032410000007094853914201621926_);" points="325.6,119.5 366.6,115 
			365.9,106.5 		"/>
		
			<linearGradient id="SVGID_00000018943293949427761610000008344657981830270629_" gradientUnits="userSpaceOnUse" x1="1621.9357" y1="3829.1145" x2="1561.8868" y2="3790.6301" gradientTransform="matrix(0.2886 0.9574 -0.9574 0.2886 3493.885 -2483.6116)">
			<stop  offset="0.5531" style="stop-color:#FFFFFF"/>
			<stop  offset="0.9944" style="stop-color:#9E9E9E"/>
		</linearGradient>
		<path style="fill:url(#SVGID_00000018943293949427761610000008344657981830270629_);" d="M319.2,114.3l-0.5,14.8l8.3,30.6
			c0,0-30.8-4-36.8-8.6c-6-4.6-17.2-22.5,1.4-31.6L319.2,114.3z"/>
		
			<linearGradient id="SVGID_00000035524634766723827540000007964281369144165055_" gradientUnits="userSpaceOnUse" x1="1567.2377" y1="3802.8125" x2="1574.295" y2="3803.4783" gradientTransform="matrix(0.2886 0.9574 -0.9574 0.2886 3493.885 -2483.6116)">
			<stop  offset="0.5531" style="stop-color:#FFFFFF"/>
			<stop  offset="0.9944" style="stop-color:#9E9E9E"/>
		</linearGradient>
		<polygon style="fill:url(#SVGID_00000035524634766723827540000007964281369144165055_);" points="292.7,120 319.2,118.7 
			319.2,114.3 		"/>
		
			<linearGradient id="SVGID_00000121961649817191078440000001332847899207260047_" gradientUnits="userSpaceOnUse" x1="1526.2963" y1="3749.7698" x2="1492.609" y2="3735.1584" gradientTransform="matrix(0.2886 0.9574 -0.9574 0.2886 3493.885 -2483.6116)">
			<stop  offset="0.5531" style="stop-color:#FFFFFF"/>
			<stop  offset="0.9944" style="stop-color:#9E9E9E"/>
		</linearGradient>
		<polygon style="fill:url(#SVGID_00000121961649817191078440000001332847899207260047_);" points="325.1,29.9 367.4,34.8 
			368.5,48.3 		"/>
		
			<linearGradient id="SVGID_00000059294955307567330670000001846062622738940307_" gradientUnits="userSpaceOnUse" x1="1538.6598" y1="3743.3596" x2="1506.395" y2="3754.9114" gradientTransform="matrix(0.2886 0.9574 -0.9574 0.2886 3493.885 -2483.6116)">
			<stop  offset="0.5531" style="stop-color:#FFFFFF"/>
			<stop  offset="0.9944" style="stop-color:#9E9E9E"/>
		</linearGradient>
		<polygon style="fill:url(#SVGID_00000059294955307567330670000001846062622738940307_);" points="333.1,59.9 340.7,43.2 
			349.2,44.8 		"/>
		
			<linearGradient id="SVGID_00000011729963276738327890000012241539909732604311_" gradientUnits="userSpaceOnUse" x1="1553.5308" y1="3725.9766" x2="1513.3053" y2="3740.3784" gradientTransform="matrix(0.2886 0.9574 -0.9574 0.2886 3493.885 -2483.6116)">
			<stop  offset="0.5531" style="stop-color:#FFFFFF"/>
			<stop  offset="0.9944" style="stop-color:#9E9E9E"/>
		</linearGradient>
		<polygon style="fill:url(#SVGID_00000011729963276738327890000012241539909732604311_);" points="352.9,63.7 357.8,46.3 
			362.1,47.1 		"/>
		
			<linearGradient id="SVGID_00000134220935698840557120000009135610694045280936_" gradientUnits="userSpaceOnUse" x1="-1982.7057" y1="1964.651" x2="-2008.3691" y2="1973.8391" gradientTransform="matrix(0.9851 0.1713 -0.1717 0.9853 2663.7646 -1522.6816)">
			<stop  offset="0.5531" style="stop-color:#FFFFFF"/>
			<stop  offset="0.9944" style="stop-color:#9E9E9E"/>
		</linearGradient>
		<polygon style="fill:url(#SVGID_00000134220935698840557120000009135610694045280936_);" points="358.7,84.8 348.8,68.9 354.5,70 
					"/>
		
			<linearGradient id="SVGID_00000086651005790049660980000017176043658027905414_" gradientUnits="userSpaceOnUse" x1="-1967.7263" y1="1978.098" x2="-1995.8134" y2="1988.1538" gradientTransform="matrix(0.9851 0.1713 -0.1717 0.9853 2663.7646 -1522.6816)">
			<stop  offset="0.5531" style="stop-color:#FFFFFF"/>
			<stop  offset="0.9944" style="stop-color:#9E9E9E"/>
		</linearGradient>
		<polygon style="fill:url(#SVGID_00000086651005790049660980000017176043658027905414_);" points="369.4,99.6 359.9,89.6 
			361.8,85.9 		"/>
		
			<linearGradient id="SVGID_00000025432752390903601820000002693974200884877221_" gradientUnits="userSpaceOnUse" x1="1546.2699" y1="3749.0474" x2="1527.1646" y2="3770.1123" gradientTransform="matrix(0.2886 0.9574 -0.9574 0.2886 3493.885 -2483.6116)">
			<stop  offset="0.5531" style="stop-color:#FFFFFF"/>
			<stop  offset="0.9944" style="stop-color:#9E9E9E"/>
		</linearGradient>
		<polygon style="fill:url(#SVGID_00000025432752390903601820000002693974200884877221_);" points="333,79.3 330.7,60.2 336.3,64.2 
					"/>
		
			<linearGradient id="SVGID_00000161592963886303527250000009675879741120134272_" gradientUnits="userSpaceOnUse" x1="-2105.6541" y1="1678.761" x2="-2118.6006" y2="1693.0353" gradientTransform="matrix(0.996 8.930000e-02 -8.930000e-02 0.996 2602.9163 -1403.0953)">
			<stop  offset="0.5531" style="stop-color:#FFFFFF"/>
			<stop  offset="0.9944" style="stop-color:#9E9E9E"/>
		</linearGradient>
		<polygon style="fill:url(#SVGID_00000161592963886303527250000009675879741120134272_);" points="354.5,97.3 335.8,85.4 
			340.3,79.9 		"/>
		
			<linearGradient id="SVGID_00000134929217487491727970000012373235660389421191_" gradientUnits="userSpaceOnUse" x1="1506.7954" y1="3779.9099" x2="1494.2441" y2="3781.6477" gradientTransform="matrix(0.2886 0.9574 -0.9574 0.2886 3493.885 -2483.6116)">
			<stop  offset="0.5531" style="stop-color:#FFFFFF"/>
			<stop  offset="0.9944" style="stop-color:#9E9E9E"/>
		</linearGradient>
		<polygon style="fill:url(#SVGID_00000134929217487491727970000012373235660389421191_);" points="295.1,50.7 317.2,32.9 
			318.6,38.8 		"/>
		
			<linearGradient id="SVGID_00000004521735471755033600000008730470573013828232_" gradientUnits="userSpaceOnUse" x1="1521.5416" y1="3807.6323" x2="1506.2648" y2="3809.7473" gradientTransform="matrix(0.2886 0.9574 -0.9574 0.2886 3493.885 -2483.6116)">
			<stop  offset="0.5531" style="stop-color:#FFFFFF"/>
			<stop  offset="0.9944" style="stop-color:#9E9E9E"/>
		</linearGradient>
		<polygon style="fill:url(#SVGID_00000004521735471755033600000008730470573013828232_);" points="276.3,69.8 289.7,54.5 
			291.5,58.3 		"/>
		<path class="st8" d="M313.5,30.9c-0.8,0.3-1.6-0.3-1.8-1.2c-0.2-1,0.2-2,1-2.3c0.8-0.3,1.6,0.3,1.8,1.2
			C314.7,29.6,314.3,30.6,313.5,30.9z"/>
		<path class="st8" d="M363.2,32.2c-0.8,0.3-1.6-0.3-1.8-1.2c-0.2-1,0.2-2,1-2.3c0.8-0.3,1.6,0.3,1.8,1.2
			C364.4,30.9,364,32,363.2,32.2z"/>
		<path class="st8" d="M330.7,53.5c-0.7,0.3-1.4-0.2-1.5-1.1c-0.2-0.8,0.2-1.7,0.8-2c0.7-0.3,1.4,0.2,1.5,1.1
			C331.7,52.4,331.3,53.3,330.7,53.5z"/>
		<path class="st8" d="M326.5,64.2c-0.7,0.3-1.4-0.2-1.5-1.1c-0.2-0.8,0.2-1.7,0.8-2s1.4,0.2,1.5,1.1
			C327.5,63.1,327.1,64,326.5,64.2z"/>
		<path class="st8" d="M339.7,92c-0.7,0.3-1.4-0.2-1.5-1.1s0.2-1.7,0.8-2c0.7-0.3,1.4,0.2,1.5,1.1C340.7,90.9,340.3,91.8,339.7,92z"
			/>
		<path class="st8" d="M350.7,62.1c-0.5,0.2-1-0.2-1.2-0.8c-0.2-0.6,0.1-1.3,0.6-1.5c0.5-0.2,1,0.2,1.2,0.8
			C351.5,61.2,351.2,61.9,350.7,62.1z"/>
		<ellipse class="st8" cx="349.2" cy="73.1" rx="0.9" ry="1.2"/>
		<path class="st8" d="M362.6,77.2c-0.4,0.2-0.9-0.1-1-0.7c-0.1-0.5,0.1-1.1,0.5-1.3c0.4-0.2,0.9,0.1,1,0.7
			C363.2,76.4,363,77,362.6,77.2z"/>
		<path class="st8" d="M362.6,95.5c-0.5,0.2-1-0.2-1.2-0.8c-0.2-0.6,0.1-1.3,0.6-1.5c0.5-0.2,1,0.2,1.2,0.8
			C363.4,94.6,363.1,95.3,362.6,95.5z"/>
		<ellipse class="st8" cx="285.1" cy="54.7" rx="1.4" ry="1.8"/>
		<path class="st8" d="M362.6,119.4c-0.7,0-1.3-0.4-1.4-1.1c0-0.6,0.5-1.2,1.3-1.3c0.7,0,1.3,0.4,1.4,1.1S363.3,119.3,362.6,119.4z"
			/>
		<path class="st8" d="M315.7,122.4c-0.7,0-1.3-0.4-1.4-1.1s0.5-1.2,1.3-1.3c0.7,0,1.3,0.4,1.4,1.1
			C317,121.8,316.5,122.4,315.7,122.4z"/>
	</g>
	<g>
		<path class="st7" d="M204,69.2l-19.6-21.7l-27.1-14.9c0,0-25.6,3.1-27.9,4c-2.3,0.8-11.1,3.4-11.1,3.4s-15.5,0.3-19,4.3
			c-3.5,4-7,10.1-8.8,11.9c-1.8,1.8-5.4,8.7-6.7,11.6C82.4,70.8,69,99.1,69,99.1l-17.6,21.2l-1.9-3.8l-6.5,6l-2.5-4.2l-38,33.1V274
			l73.9-74.9l-3.5-8.5l9.9-7.6l-2-4.1c0.3,0,0.6-0.1,0.9-0.1c4.5-0.6,10.4-1.5,15.3-2.9l0,0c1.1-0.3,2.1-0.6,3-1
			c1.8-0.7,3.3-1.4,4.3-2.3c5.7-4.5,20.4-13.4,28.9-15.5c1.2-0.3,2.2-0.5,3.1-0.5c3.6,0,10.6-0.6,17.2-1.5c4.2-0.5,8.2-1.2,11.1-1.9
			c1.8-0.4,3.3-0.9,4.1-1.4c1.9-1.1,6.3-3.7,10.9-6.3c2.7-1.5,5.5-3.1,7.8-4.4c2.3-1.3,4.1-2.3,4.9-2.7c2-1,4.4-9.1,2.5-15.2l0,0
			c-0.9-2.8-2.7-5.2-5.8-6.4c-10.1-3.8-27,0.8-27,0.8l-6.6-0.6l2.8-8.6c0,0,0.2-0.3,0.5-1c0.3-0.6,0.8-1.5,1.3-2.5c0,0,0.8-0.8,2-2
			c2.2-2.3,5.7-5.8,6.4-6.7c1.1-1.5,3.7-28.8,3.7-28.8c1.2,0.2,2.4,0.4,3.4,0.3c0,0,10.5,9.2,15.4,9.8c4.5,0.6,9.5,1.1,12.4-2.9
			c0.3-0.4,0.6-0.9,0.8-1.4C204.1,73.5,204.8,70.6,204,69.2z"/>
		<g>
			
				<linearGradient id="SVGID_00000054965675896704034970000010868128205608153764_" gradientUnits="userSpaceOnUse" x1="2957.4326" y1="141.7923" x2="2938.5042" y2="171.1311" gradientTransform="matrix(-0.9997 2.409434e-02 2.409434e-02 0.9997 3074.1052 -134.6436)">
				<stop  offset="0" style="stop-color:#FFFFFF"/>
				<stop  offset="0.3998" style="stop-color:#EBECED"/>
				<stop  offset="1" style="stop-color:#CFCFCF"/>
			</linearGradient>
			<path style="fill:url(#SVGID_00000054965675896704034970000010868128205608153764_);" d="M121.1,109.8l4.1,4.6
				c3-11.8,18.2-20.8,18.2-20.8c-0.5-1.4,1.9-10.4,1.9-10.5c-0.1,0-0.3,0.1-0.4,0.1c-1.5,0-3.4-1.8-3.4-1.8l-2.1-3.4l-1.3-2.2
				l-6.2-1.1l-13.4,3.9l0,0c0,0,0,0,0,0c-0.1,0.7-2,12.5-3,15.2C114.4,96.6,121.1,109.8,121.1,109.8z"/>
			
				<linearGradient id="SVGID_00000181060669334778736460000014848707516999229057_" gradientUnits="userSpaceOnUse" x1="2933.1328" y1="147.0606" x2="2933.1313" y2="147.0595" gradientTransform="matrix(-0.9997 2.409434e-02 2.409434e-02 0.9997 3074.1052 -134.6436)">
				<stop  offset="0" style="stop-color:#FFFFFF"/>
				<stop  offset="0.3998" style="stop-color:#EBECED"/>
				<stop  offset="1" style="stop-color:#CFCFCF"/>
			</linearGradient>
			<polygon style="fill:url(#SVGID_00000181060669334778736460000014848707516999229057_);" points="145.4,83 145.4,83 145.4,83 			
				"/>
			
				<linearGradient id="SVGID_00000066502848258715944700000005387842695446398629_" gradientUnits="userSpaceOnUse" x1="2928.1714" y1="183.9696" x2="2934.3459" y2="172.8557" gradientTransform="matrix(-0.9997 2.409434e-02 2.409434e-02 0.9997 3074.1052 -134.6436)">
				<stop  offset="0" style="stop-color:#FFFFFF"/>
				<stop  offset="0.3998" style="stop-color:#EBECED"/>
				<stop  offset="1" style="stop-color:#CFCFCF"/>
			</linearGradient>
			<polygon style="fill:url(#SVGID_00000066502848258715944700000005387842695446398629_);" points="136.9,118.4 155.3,117.3 
				158.1,108.7 			"/>
			
				<linearGradient id="SVGID_00000131346420401356455370000009457842266657057426_" gradientUnits="userSpaceOnUse" x1="2929.196" y1="135.3967" x2="2940.8208" y2="123.7721" gradientTransform="matrix(-0.9997 2.409434e-02 2.409434e-02 0.9997 3074.1052 -134.6436)">
				<stop  offset="0" style="stop-color:#FFFFFF"/>
				<stop  offset="0.3998" style="stop-color:#EBECED"/>
				<stop  offset="1" style="stop-color:#CFCFCF"/>
			</linearGradient>
			<path style="fill:url(#SVGID_00000131346420401356455370000009457842266657057426_);" d="M120.4,77.4c0,0,36.5-13.6,37.8-15.8
				c1.2-2.2,2.7-8.4,2.6-12.4c0,0-5.1,12.7-9.2,14.2C142.1,67.1,120.4,77.4,120.4,77.4z"/>
			
				<linearGradient id="SVGID_00000046338908719207368500000004201355313188402065_" gradientUnits="userSpaceOnUse" x1="2880.0437" y1="145.3765" x2="2897.7173" y2="127.7031" gradientTransform="matrix(-0.9997 2.409434e-02 2.409434e-02 0.9997 3074.1052 -134.6436)">
				<stop  offset="0" style="stop-color:#FFFFFF"/>
				<stop  offset="0.3998" style="stop-color:#EBECED"/>
				<stop  offset="1" style="stop-color:#CFCFCF"/>
			</linearGradient>
			<path style="fill:url(#SVGID_00000046338908719207368500000004201355313188402065_);" d="M175.4,68c0,0,10.5,9.2,15.4,9.8
				c4.5,0.6,9.5,1.1,12.4-2.9c0,0-7.1,2.7-10.8,1.4C188.7,75,175.4,68,175.4,68z"/>
			
				<linearGradient id="SVGID_00000181802040497383260280000003443868734610011555_" gradientUnits="userSpaceOnUse" x1="2910.6375" y1="150.2029" x2="2920.8057" y2="147.4171" gradientTransform="matrix(-0.9997 2.409434e-02 2.409434e-02 0.9997 3074.1052 -134.6436)">
				<stop  offset="0" style="stop-color:#FFFFFF"/>
				<stop  offset="0.3998" style="stop-color:#EBECED"/>
				<stop  offset="1" style="stop-color:#CFCFCF"/>
			</linearGradient>
			<path style="fill:url(#SVGID_00000181802040497383260280000003443868734610011555_);" d="M161.9,103.2c2.2-2.3,5.7-5.7,6.4-6.7
				c1.1-1.5,3.7-28.8,3.7-28.8l-4.8-1.3L166,76.8l-0.9,12.7L161.9,103.2z"/>
			
				<linearGradient id="SVGID_00000111905333690206923530000003088972535280938431_" gradientUnits="userSpaceOnUse" x1="2967.6934" y1="167.9234" x2="2949.6438" y2="161.5816" gradientTransform="matrix(-0.9997 2.409434e-02 2.409434e-02 0.9997 3074.1052 -134.6436)">
				<stop  offset="0" style="stop-color:#FFFFFF"/>
				<stop  offset="0.3998" style="stop-color:#EBECED"/>
				<stop  offset="1" style="stop-color:#CFCFCF"/>
			</linearGradient>
			<path style="fill:url(#SVGID_00000111905333690206923530000003088972535280938431_);" d="M112.5,94.5l1.7,18l12.2,8.9l10.5-3
				l-7.8,0.2l-3.9-4.3l-4.1-4.6c0,0-6.6-13.2-5.6-15.9c1-2.7,2.9-14.5,3-15.2c0,0,0,0,0,0L112.5,94.5z"/>
			
				<linearGradient id="SVGID_00000083805034330026956720000011470997287013010102_" gradientUnits="userSpaceOnUse" x1="2907.5049" y1="122.749" x2="2907.856" y2="134.1005" gradientTransform="matrix(-0.9997 2.409434e-02 2.409434e-02 0.9997 3074.1052 -134.6436)">
				<stop  offset="0" style="stop-color:#FFFFFF"/>
				<stop  offset="0.3998" style="stop-color:#EBECED"/>
				<stop  offset="1" style="stop-color:#CFCFCF"/>
			</linearGradient>
			<path style="fill:url(#SVGID_00000083805034330026956720000011470997287013010102_);" d="M175.4,68l3-5.1l1.3-6.6
				c0,0-4,8.6-5.3,8.9c-1.3,0.4-13.2-0.9-13.2-0.9l6.1,2l4.8,1.3L175.4,68z"/>
			
				<linearGradient id="SVGID_00000089547734730343213950000015459350791526336142_" gradientUnits="userSpaceOnUse" x1="2887.5679" y1="200.0283" x2="2903.425" y2="200.0283" gradientTransform="matrix(-0.9997 2.409434e-02 2.409434e-02 0.9997 3074.1052 -134.6436)">
				<stop  offset="0" style="stop-color:#FFFFFF"/>
				<stop  offset="0.3998" style="stop-color:#EBECED"/>
				<stop  offset="1" style="stop-color:#CFCFCF"/>
			</linearGradient>
			<polygon style="fill:url(#SVGID_00000089547734730343213950000015459350791526336142_);" points="177,130.6 177.8,146.7 
				176.6,147.4 176.2,126.9 191.9,122.8 177.5,127.6 			"/>
			
				<linearGradient id="SVGID_00000108282673678229427940000003945171678395355304_" gradientUnits="userSpaceOnUse" x1="3004.8647" y1="220.2314" x2="3035.9255" y2="220.2314" gradientTransform="matrix(-0.9997 2.409434e-02 2.409434e-02 0.9997 3074.1052 -134.6436)">
				<stop  offset="0" style="stop-color:#FFFFFF"/>
				<stop  offset="0.3998" style="stop-color:#EBECED"/>
				<stop  offset="1" style="stop-color:#CFCFCF"/>
			</linearGradient>
			<polygon style="fill:url(#SVGID_00000108282673678229427940000003945171678395355304_);" points="72.9,190.6 43.6,126 
				76.1,188.2 			"/>
			
				<linearGradient id="SVGID_00000031175489127808483670000005026073027659382679_" gradientUnits="userSpaceOnUse" x1="2995.6785" y1="213.4426" x2="3026.3137" y2="213.4426" gradientTransform="matrix(-0.9997 2.409434e-02 2.409434e-02 0.9997 3074.1052 -134.6436)">
				<stop  offset="0" style="stop-color:#FFFFFF"/>
				<stop  offset="0.3998" style="stop-color:#EBECED"/>
				<stop  offset="1" style="stop-color:#CFCFCF"/>
			</linearGradient>
			<polygon style="fill:url(#SVGID_00000031175489127808483670000005026073027659382679_);" points="80.8,179 53.1,123.7 
				85.1,178.4 			"/>
			
				<linearGradient id="SVGID_00000054235711715311558700000017155118386188304056_" gradientUnits="userSpaceOnUse" x1="3002.167" y1="242.2411" x2="3007.759" y2="242.2411" gradientTransform="matrix(-0.9997 2.409434e-02 2.409434e-02 0.9997 3074.1052 -134.6436)">
				<stop  offset="0" style="stop-color:#FFFFFF"/>
				<stop  offset="0.3998" style="stop-color:#EBECED"/>
				<stop  offset="1" style="stop-color:#CFCFCF"/>
			</linearGradient>
			<path style="fill:url(#SVGID_00000054235711715311558700000017155118386188304056_);" d="M75.1,176.4c0,0,4.5,1.6,2.5,4.7
				c-2,3.1-4.4-0.3-4.6-1.9c0,0,0.1,4.3,3,4.2C79,183.4,80.3,176.7,75.1,176.4z"/>
			
				<linearGradient id="SVGID_00000046300587545782678790000016749476519914193590_" gradientUnits="userSpaceOnUse" x1="3012.2734" y1="262.1085" x2="3017.8655" y2="262.1085" gradientTransform="matrix(-0.9997 2.409434e-02 2.409434e-02 0.9997 3074.1052 -134.6436)">
				<stop  offset="0" style="stop-color:#FFFFFF"/>
				<stop  offset="0.3998" style="stop-color:#EBECED"/>
				<stop  offset="1" style="stop-color:#CFCFCF"/>
			</linearGradient>
			<path style="fill:url(#SVGID_00000046300587545782678790000016749476519914193590_);" d="M65.4,196.5c0,0,4.5,1.6,2.5,4.7
				c-2,3.1-4.4-0.3-4.6-1.9c0,0,0.1,4.3,3,4.2C69.3,203.5,70.7,196.8,65.4,196.5z"/>
			
				<linearGradient id="SVGID_00000051372838714865589480000003263733540699708093_" gradientUnits="userSpaceOnUse" x1="3020.3748" y1="270.8703" x2="3025.9666" y2="270.8703" gradientTransform="matrix(-0.9997 2.409434e-02 2.409434e-02 0.9997 3074.1052 -134.6436)">
				<stop  offset="0" style="stop-color:#FFFFFF"/>
				<stop  offset="0.3998" style="stop-color:#EBECED"/>
				<stop  offset="1" style="stop-color:#CFCFCF"/>
			</linearGradient>
			<path style="fill:url(#SVGID_00000051372838714865589480000003263733540699708093_);" d="M57.6,205.5c0,0,4.5,1.6,2.5,4.7
				c-2,3.1-4.4-0.3-4.6-1.9c0,0,0.1,4.3,3,4.2C61.5,212.4,62.8,205.8,57.6,205.5z"/>
			
				<linearGradient id="SVGID_00000043436033338609663170000000179453023930879410_" gradientUnits="userSpaceOnUse" x1="3028.3057" y1="279.6017" x2="3033.8977" y2="279.6017" gradientTransform="matrix(-0.9997 2.409434e-02 2.409434e-02 0.9997 3074.1052 -134.6436)">
				<stop  offset="0" style="stop-color:#FFFFFF"/>
				<stop  offset="0.3998" style="stop-color:#EBECED"/>
				<stop  offset="1" style="stop-color:#CFCFCF"/>
			</linearGradient>
			<path style="fill:url(#SVGID_00000043436033338609663170000000179453023930879410_);" d="M49.8,214.4c0,0,4.5,1.6,2.5,4.7
				c-2,3.1-4.4-0.3-4.6-1.9c0,0,0.1,4.3,3,4.2C53.7,221.3,55.1,214.7,49.8,214.4z"/>
			
				<linearGradient id="SVGID_00000093142696257627972700000000097751739992421506_" gradientUnits="userSpaceOnUse" x1="2926.689" y1="227.5196" x2="2983.7195" y2="227.5196" gradientTransform="matrix(-0.9997 2.409434e-02 2.409434e-02 0.9997 3074.1052 -134.6436)">
				<stop  offset="0" style="stop-color:#FFFFFF"/>
				<stop  offset="0.3998" style="stop-color:#EBECED"/>
				<stop  offset="1" style="stop-color:#CFCFCF"/>
			</linearGradient>
			<path style="fill:url(#SVGID_00000093142696257627972700000000097751739992421506_);" d="M97,176c1.1-0.3,2.1-0.6,3-1
				c1.8-0.7,3.3-1.4,4.3-2.3c5.7-4.5,20.4-13.4,28.9-15.5c1.2-0.3,2.2-0.5,3.1-0.5c3.6,0,10.6-0.6,17.2-1.5
				c-3.3-0.7-18.5-3.8-22-2.3c-3.9,1.7-28,14-29.5,16.7C100.6,172.2,97.1,175.8,97,176z"/>
			
				<linearGradient id="SVGID_00000044898300139474879120000005013443888251324305_" gradientUnits="userSpaceOnUse" x1="2929.9883" y1="134.1931" x2="2924.9194" y2="142.0497" gradientTransform="matrix(-0.9997 2.409434e-02 2.409434e-02 0.9997 3074.1052 -134.6436)">
				<stop  offset="0" style="stop-color:#FFFFFF"/>
				<stop  offset="0.3998" style="stop-color:#EBECED"/>
				<stop  offset="1" style="stop-color:#CFCFCF"/>
			</linearGradient>
			<path style="fill:url(#SVGID_00000044898300139474879120000005013443888251324305_);" d="M145.6,82.3l9.8-17.5
				C155.4,64.8,153.7,75.3,145.6,82.3z"/>
			
				<linearGradient id="SVGID_00000049202240989461672650000000394571385175711638_" gradientUnits="userSpaceOnUse" x1="2935.4373" y1="159.5244" x2="2928.0447" y2="170.9827" gradientTransform="matrix(-0.9997 2.409434e-02 2.409434e-02 0.9997 3074.1052 -134.6436)">
				<stop  offset="0" style="stop-color:#FFFFFF"/>
				<stop  offset="0.3998" style="stop-color:#EBECED"/>
				<stop  offset="1" style="stop-color:#CFCFCF"/>
			</linearGradient>
			<path style="fill:url(#SVGID_00000049202240989461672650000000394571385175711638_);" d="M144,94.6c0,0,5,10,5.1,12.3
				C149.1,106.8,150.2,100.2,144,94.6z"/>
		</g>
	</g>
</g>
</svg>
