<svg xmlns="http://www.w3.org/2000/svg" xmlns:xlink="http://www.w3.org/1999/xlink" version="1.1" id="Layer_1" x="0px" y="0px" style="enable-background:new 0 0 1280 500;" xml:space="preserve" viewBox="2.8 9.4 747 482">
<style type="text/css">
	.st0{fill:#FFFFFF;}
	.st1{fill:#231F20;}
	.st2{fill:url(#SVGID_1_);}
	.st3{fill:url(#SVGID_00000130639345241537054210000001592737660554676406_);}
	.st4{fill:url(#SVGID_00000173849770387607427720000003627208964223828884_);}
	.st5{fill:url(#SVGID_00000143583905166592031660000014186484508597291934_);}
	.st6{fill:url(#SVGID_00000149351790436899075330000017632156201828581296_);}
	.st7{fill:url(#SVGID_00000154391863422191040920000017228093816618284173_);}
	.st8{fill:url(#SVGID_00000054254558582351642260000012764602522810151601_);}
	.st9{fill:url(#SVGID_00000147917335775849990370000013193016693710654858_);}
	.st10{fill:url(#SVGID_00000138549204714962579250000009540603063987463353_);}
	.st11{fill:url(#SVGID_00000023259913264305899660000013595352567323148425_);}
	.st12{fill:url(#SVGID_00000121996423057394637950000008118002195046822314_);}
	.st13{fill:#161616;}
	.st14{fill:url(#SVGID_00000075124861818302322590000008951986353845256852_);}
	.st15{fill:url(#SVGID_00000040556127433018827980000018169518421671965586_);}
	.st16{fill:url(#SVGID_00000059994895148337906760000004175741833221196697_);}
	.st17{fill:url(#SVGID_00000113339385018529015850000011178061312312106411_);}
	.st18{fill:url(#SVGID_00000116927482220511269270000017358655541165544895_);}
	.st19{fill:url(#SVGID_00000014625460099340056200000010401305634928720305_);}
	.st20{fill:url(#SVGID_00000110442929521444448590000007499901134173104819_);}
	.st21{fill:url(#SVGID_00000168103728832804638230000008492921008967608726_);}
	.st22{fill:url(#SVGID_00000074418300230629364110000010155398774774423708_);}
	.st23{fill:url(#SVGID_00000005261303928288038480000000012972120011441078_);}
	.st24{fill:url(#SVGID_00000091013896449195440070000012073392864069453991_);}
	.st25{fill:url(#SVGID_00000103256842811046468950000018038332239107350170_);}
	.st26{fill:url(#SVGID_00000148647360051953085990000001879857101035428781_);}
	.st27{fill:url(#SVGID_00000134960885353989482250000016620726024467607706_);}
	.st28{fill:url(#SVGID_00000159454855664611998240000003840044147525388715_);}
	.st29{fill:url(#SVGID_00000165943167347406216680000008026476491604125576_);}
	.st30{fill:url(#SVGID_00000120524098562064699360000013887291508453078709_);}
	.st31{fill:url(#SVGID_00000129185267565034025420000006364553142408624055_);}
	.st32{fill:url(#SVGID_00000050651556639600806110000013867030580455319946_);}
	.st33{fill:url(#SVGID_00000130610725980245667510000016320224564506165944_);}
	.st34{fill:url(#SVGID_00000081611525154553466970000001927226867825336226_);}
	.st35{fill:url(#SVGID_00000129909456679187482820000006163295632171192502_);}
	.st36{fill:url(#SVGID_00000057847289214470982510000007701687470736006789_);}
	.st37{fill:url(#SVGID_00000182517276643213161110000013814783259720729513_);}
	.st38{fill:url(#SVGID_00000183944061771961709190000008585794833797755321_);}
	.st39{fill:url(#SVGID_00000012444163066983548640000010517799382533323168_);}
	.st40{fill:url(#SVGID_00000147199301080416481140000004659699619164086454_);}
	.st41{fill:url(#SVGID_00000100371884300218784320000009129612411509930881_);}
	.st42{fill:url(#SVGID_00000141445395619112741520000015841623535784717731_);}
	.st43{fill:url(#SVGID_00000035514314514924591410000003791279385078550954_);}
	.st44{fill:url(#SVGID_00000160188966706371072080000000921981694761628808_);}
	.st45{fill:url(#SVGID_00000106832537342678842500000016885285577782497674_);}
	.st46{fill:url(#SVGID_00000181057657911965752060000009842619934729633452_);}
	.st47{fill:url(#SVGID_00000128460202118159273290000012814810629353581980_);}
	.st48{fill:url(#SVGID_00000087377065307277953700000004421491175998055814_);}
	.st49{fill:url(#SVGID_00000170965300644784126410000008184051734106632894_);}
	.st50{fill:url(#SVGID_00000017502715780435270350000001818290744348592299_);}
	.st51{fill:url(#SVGID_00000016053519561867277710000000168319114074652335_);}
	.st52{fill:url(#SVGID_00000135654372692494793720000006488643347794519953_);}
	.st53{fill:url(#SVGID_00000072990922960991209230000009904341343222262207_);}
	.st54{fill:url(#SVGID_00000127042360573036380910000016336097551326715064_);}
	.st55{fill:url(#SVGID_00000098936606259371391140000009472408516229871777_);}
	.st56{fill:url(#SVGID_00000029039363715447348940000000347641711830543542_);}
</style>
<g>
	<polygon class="st0" points="570.5,9.4 739,491.4 749.8,491.4 581.3,9.4  "/>
</g>
<g>
	<path class="st0" d="M306.3,222.9c0,0-16.1-0.7-18.7-0.7c-2.6,0-3.5,2.3-3.1,4.5c0.4,2.2,2.8,4.8,3,5.7c0.2,0.9,0.6,7.3-6.9,7.3   s-5.8-9.3-4.7-10.6c1.1-1.3,1.2-3.6,1.2-4.6c0-1-1.2-2.7-2.2-2.7s-18.7,1.4-18.7,1.4s1.4,8.1,1.5,12.4c0.1,4.2-1.1,6.5-3,7.7   c-1.9,1.2-6.1-1.2-8.2-2c-2.2-0.7-5.2,0.9-5.7,2.7c-0.6,1.8-0.1,7.3,1.2,9.1c1.2,1.7,4.7,2.9,7.3,1.5c2.7-1.4,4.3-1.8,6.5-1.2   c2.2,0.6,1.2,19.1,1.2,19.1l15.5,1.3c0,0,2.6,0.7,3.4-1.3c0.8-2-1.5-6.9-1.3-9.5c0.2-2.6,2.8-7.2,6.6-6.9c3.8,0.3,6.3,3.2,6.3,4.9   s-0.2,5.6-1.7,7.8c-1.5,2.2-0.2,5.5,2.7,5.7c2.8,0.2,18.2-2.2,18.2-2.2s1.2-13.7,1-15.7c-0.2-2-2-6-5-4.3c-3,1.7-8.3,4.4-10.8,1.9   c-2.5-2.5-2.6-7.5-1.7-8.9c0.8-1.4,2.2-4,5.6-4s5.2,2.2,6.5,3c1.3,0.7,5.3,0.1,5.5-2.2C307.6,239.6,306.3,222.9,306.3,222.9z"/>
	<path class="st0" d="M391.9,238.7c-0.3-1.8-4.6-6.7-7.9-5.5c-3.4,1.2-4.2,4.4-6,4.3c-1.9-0.1-4.3-2-4.7-5.5   c-0.4-3.5-0.5-15.8-0.5-16.6l0,0c0,0-14.7,1.1-18.1,1.8c-3.4,0.7-2.8,3.6-2.5,4.7c0.3,1.1,3.2,3,3.7,5.8c0.5,2.8,0.7,7.5-4.8,8.5   c-5.5,0.9-8-1.5-8.7-5.1c-0.8-3.6,1.9-6.5,2.2-8.7c0.3-2.1-2.3-3.2-4.3-3.2c-2-0.1-16.6,2.9-16.6,2.9s3.3,16.5,3.4,18.8   c0,2.3-3.8,3.5-5.2,2.9c-1.4-0.6-3.5-2.6-6.8-2.2c-3.3,0.4-4.4,3.1-5.1,4.6c-0.7,1.5,0,6.5,2.8,8.6c2.8,2.2,7.7-1.2,10.5-3.2   c2.8-2,5.1,1.7,5.5,3.7c0.4,2,0.9,15.7,0.9,15.7s14.6-2.4,17.1-2.9c2.5-0.5,4.4,1.9,3.8,3.7c-0.6,1.9-2.3,5.9-1.9,7.9   c0.4,2,3.4,5.9,7.2,5.5c3.8-0.4,6.5-4.8,5.9-7.3c-0.6-2.6-2.6-3.8-3.4-5.8c-0.8-2-0.6-4.5,1.5-5.4c2.1-0.9,17.2-2.3,17.2-2.3   s-2-15.5-2-16.1c0-0.6,0.5-4,3.6-3.4c3.1,0.5,8.3,2.6,10.6,0.2C391.4,242.5,392.2,240.6,391.9,238.7z"/>
	<g>
		<polygon class="st1" points="458.8,180.1 436.4,201.6 433.8,210.3 442.5,226.1 443.2,241.4 422.3,245.6 409.2,240.7 399,189.3     418.9,169.6   "/>
		<polygon class="st1" points="481.1,204.9 475.2,209.8 475.2,218.7 482.9,227.5 486.4,236.6 476.5,238.6 469.7,229.6 458.5,214.9     460.5,201.7 465.3,195.1   "/>
		
			<linearGradient id="SVGID_1_" gradientUnits="userSpaceOnUse" x1="1856.0278" y1="4063.1633" x2="1852.1307" y2="4100.0088" gradientTransform="matrix(0.2886 0.9574 -0.9574 0.2886 3865.7368 -2758.6147)">
			<stop offset="0.5531" style="stop-color:#FFFFFF"/>
			<stop offset="0.9944" style="stop-color:#666666"/>
		</linearGradient>
		<polygon class="st2" points="490.6,207.5 475.3,212.8 458.8,200.9 465,184.7 487.9,185.7   "/>
		
			<linearGradient id="SVGID_00000173138708890807220560000004251253042735469711_" gradientUnits="userSpaceOnUse" x1="1890.1229" y1="4085.0322" x2="1851.8474" y2="4098.7358" gradientTransform="matrix(0.2886 0.9574 -0.9574 0.2886 3865.7368 -2758.6147)">
			<stop offset="0.5531" style="stop-color:#FFFFFF"/>
			<stop offset="0.9944" style="stop-color:#9E9E9E"/>
		</linearGradient>
		<polygon style="fill:url(#SVGID_00000173138708890807220560000004251253042735469711_);" points="472.8,208.4 487,196.5     492.1,205.8   "/>
		
			<linearGradient id="SVGID_00000080894060393761157540000011727373800035262652_" gradientUnits="userSpaceOnUse" x1="1876.425" y1="4162.0674" x2="1871.4651" y2="4107.1538" gradientTransform="matrix(0.2886 0.9574 -0.9574 0.2886 3865.7368 -2758.6147)">
			<stop offset="0.5531" style="stop-color:#FFFFFF"/>
			<stop offset="0.9944" style="stop-color:#666666"/>
		</linearGradient>
		<polygon style="fill:url(#SVGID_00000080894060393761157540000011727373800035262652_);" points="476.5,217.1 456.8,208.5     468.3,237.4 486.3,228.8   "/>
		
			<linearGradient id="SVGID_00000056402027690138531770000012651193185289549247_" gradientUnits="userSpaceOnUse" x1="1923.1384" y1="4087.1609" x2="1857.1488" y2="4110.7866" gradientTransform="matrix(0.2886 0.9574 -0.9574 0.2886 3865.7368 -2758.6147)">
			<stop offset="0.5531" style="stop-color:#FFFFFF"/>
			<stop offset="0.9944" style="stop-color:#9E9E9E"/>
		</linearGradient>
		<polygon style="fill:url(#SVGID_00000056402027690138531770000012651193185289549247_);" points="481.6,229.5 471.2,214.6     476.1,216.8   "/>
		
			<linearGradient id="SVGID_00000121242780411461794080000009224471541388747144_" gradientUnits="userSpaceOnUse" x1="1903.1943" y1="4148.6572" x2="1897.1715" y2="4100.8286" gradientTransform="matrix(0.2886 0.9574 -0.9574 0.2886 3865.7368 -2758.6147)">
			<stop offset="0.5531" style="stop-color:#FFFFFF"/>
			<stop offset="0.9944" style="stop-color:#9E9E9E"/>
		</linearGradient>
		<path style="fill:url(#SVGID_00000121242780411461794080000009224471541388747144_);" d="M474,236.6l16.5,13.6    c0,0,3.2-12.8-2.8-16.2L474,236.6z"/>
		<polygon class="st1" points="470.3,183.2 467.2,192 459.1,207.3 458.5,214.9 463.8,222.9 469.5,231.6 474,241.6 469.5,246.1     456.6,235.5 440.1,224.6 435.4,213.2 435.2,202 445.3,190.7 446.5,183.9   "/>
		
			<linearGradient id="SVGID_00000111877137859062146970000014498370039631096217_" gradientUnits="userSpaceOnUse" x1="1861.5621" y1="4089.0747" x2="1848.808" y2="4105.0176" gradientTransform="matrix(0.2886 0.9574 -0.9574 0.2886 3865.7368 -2758.6147)">
			<stop offset="0.5531" style="stop-color:#FFFFFF"/>
			<stop offset="0.9944" style="stop-color:#808080"/>
		</linearGradient>
		<polygon style="fill:url(#SVGID_00000111877137859062146970000014498370039631096217_);" points="437.6,200.6 461.2,210     473.8,180.9 458.3,178.5   "/>
		
			<linearGradient id="SVGID_00000075841798168522057400000015900570537091366844_" gradientUnits="userSpaceOnUse" x1="1884.7974" y1="4168.1099" x2="1863.5403" y2="4123.2041" gradientTransform="matrix(0.2886 0.9574 -0.9574 0.2886 3865.7368 -2758.6147)">
			<stop offset="0.5531" style="stop-color:#FFFFFF"/>
			<stop offset="0.9944" style="stop-color:#808080"/>
		</linearGradient>
		<polygon style="fill:url(#SVGID_00000075841798168522057400000015900570537091366844_);" points="434.4,208.3 460.2,212.7     469.3,225.9 458.7,239.9 432.1,215.4   "/>
		
			<linearGradient id="SVGID_00000067234895184772748920000001621106930397308805_" gradientUnits="userSpaceOnUse" x1="1872.9926" y1="4043.636" x2="1894.9359" y2="4113.0566" gradientTransform="matrix(0.2886 0.9574 -0.9574 0.2886 3865.7368 -2758.6147)">
			<stop offset="0.5531" style="stop-color:#FFFFFF"/>
			<stop offset="0.9944" style="stop-color:#808080"/>
		</linearGradient>
		<path style="fill:url(#SVGID_00000067234895184772748920000001621106930397308805_);" d="M470.2,228.9l-9.9,13.7l12.9,12.8    C481.5,259.4,496.7,248,470.2,228.9z"/>
		
			<linearGradient id="SVGID_00000119835747516573885080000002924610206495584913_" gradientUnits="userSpaceOnUse" x1="1814.9418" y1="4083.0996" x2="1829.4231" y2="4138.7778" gradientTransform="matrix(0.2886 0.9574 -0.9574 0.2886 3865.7368 -2758.6147)">
			<stop offset="0.5531" style="stop-color:#FFFFFF"/>
			<stop offset="0.9944" style="stop-color:#9E9E9E"/>
		</linearGradient>
		<polygon style="fill:url(#SVGID_00000119835747516573885080000002924610206495584913_);" points="463.2,178.8 437.6,205.5     406.4,182 429.5,166.4   "/>
		
			<linearGradient id="SVGID_00000088134357538629097820000005675529054997248926_" gradientUnits="userSpaceOnUse" x1="1841.3956" y1="4191.248" x2="1851.4928" y2="4138.6367" gradientTransform="matrix(0.2886 0.9574 -0.9574 0.2886 3865.7368 -2758.6147)">
			<stop offset="0.5531" style="stop-color:#FFFFFF"/>
			<stop offset="0.9944" style="stop-color:#9E9E9E"/>
		</linearGradient>
		<polygon style="fill:url(#SVGID_00000088134357538629097820000005675529054997248926_);" points="436.7,206.9 393.9,181.9     409,242.5 441.2,221.8   "/>
		
			<linearGradient id="SVGID_00000088092539337333533640000010756014323739211678_" gradientUnits="userSpaceOnUse" x1="1902.1035" y1="4162.2915" x2="1884.174" y2="4131.354" gradientTransform="matrix(0.2886 0.9574 -0.9574 0.2886 3865.7368 -2758.6147)">
			<stop offset="0.5531" style="stop-color:#FFFFFF"/>
			<stop offset="0.9944" style="stop-color:#9E9E9E"/>
		</linearGradient>
		<path style="fill:url(#SVGID_00000088092539337333533640000010756014323739211678_);" d="M441.9,222.8l-24.3,23.5l38.7,11.6    c10.5,4.7,16.3-12.2,5.1-22.5C453.8,228.4,441.9,222.8,441.9,222.8z"/>
		<polygon class="st13" points="638.5,245.9 597.8,224.8 503.9,148.7 482.8,143.7 466.9,148.5 405.5,147.6 398,149.8 359.3,180.9     372.3,201.8 386.6,190.8 407.7,181.5 425,178.9 474.1,186.1 486.1,195.2 493.8,216.4 490.7,241.2 474.6,253.7 422.5,261.8     411.3,260.5 379.6,269.7 384.6,286.4 404.3,298.3 414.2,302.2 431,302.1 471.7,298.4 488.8,298.6 546.8,299.6 597.3,319.8     661.6,330.8   "/>
		
			<linearGradient id="SVGID_00000083790185052933922240000013581211311539809927_" gradientUnits="userSpaceOnUse" x1="1796.7822" y1="4222.9932" x2="1846.6858" y2="4209.3101" gradientTransform="matrix(0.2886 0.9574 -0.9574 0.2886 3865.7368 -2758.6147)">
			<stop offset="0.5531" style="stop-color:#FFFFFF"/>
			<stop offset="0.9944" style="stop-color:#9E9E9E"/>
		</linearGradient>
		<path style="fill:url(#SVGID_00000083790185052933922240000013581211311539809927_);" d="M336.5,210.1c0,0-0.1,7.7,5.5,8.3    c5.6,0.6,15,0.3,23.2-5.9l13.3-11.9L362.6,174L336.5,210.1z"/>
		
			<linearGradient id="SVGID_00000127748357931725368280000017999977456535478164_" gradientUnits="userSpaceOnUse" x1="1766.0747" y1="4182.106" x2="1837.02" y2="4162.9746" gradientTransform="matrix(0.2886 0.9574 -0.9574 0.2886 3865.7368 -2758.6147)">
			<stop offset="0.5531" style="stop-color:#FFFFFF"/>
			<stop offset="0.9944" style="stop-color:#9E9E9E"/>
		</linearGradient>
		<polygon style="fill:url(#SVGID_00000127748357931725368280000017999977456535478164_);" points="364.4,172.7 385.8,195.6     414.2,182.1 403.1,145.1   "/>
		
			<linearGradient id="SVGID_00000067233256638589242150000014755220465980305316_" gradientUnits="userSpaceOnUse" x1="1754.1646" y1="4095.4294" x2="1864.1697" y2="4146.4463" gradientTransform="matrix(0.2886 0.9574 -0.9574 0.2886 3865.7368 -2758.6147)">
			<stop offset="0.5531" style="stop-color:#FFFFFF"/>
			<stop offset="0.9944" style="stop-color:#9E9E9E"/>
		</linearGradient>
		<polygon style="fill:url(#SVGID_00000067233256638589242150000014755220465980305316_);" points="405.1,144.5 473.6,142.4     478.5,190.3 421.7,182.1   "/>
		
			<linearGradient id="SVGID_00000108282853738329580430000017580643277644646541_" gradientUnits="userSpaceOnUse" x1="1954.1306" y1="4088.3892" x2="1928.0907" y2="4030.9951" gradientTransform="matrix(0.2886 0.9574 -0.9574 0.2886 3865.7368 -2758.6147)">
			<stop offset="0.5531" style="stop-color:#FFFFFF"/>
			<stop offset="0.9944" style="stop-color:#9E9E9E"/>
		</linearGradient>
		<polygon style="fill:url(#SVGID_00000108282853738329580430000017580643277644646541_);" points="523.2,245.1 490.2,236.4     480.7,246 484,300.1 539.2,312.1 580.6,313.1 590.4,269.4 539.4,235.5   "/>
		
			<linearGradient id="SVGID_00000016765094142697638360000004905697836298753460_" gradientUnits="userSpaceOnUse" x1="1875.726" y1="3930.7969" x2="1898.8429" y2="4148.4155" gradientTransform="matrix(0.2886 0.9574 -0.9574 0.2886 3865.7368 -2758.6147)">
			<stop offset="0.5531" style="stop-color:#FFFFFF"/>
			<stop offset="0.9944" style="stop-color:#9E9E9E"/>
		</linearGradient>
		<path style="fill:url(#SVGID_00000016765094142697638360000004905697836298753460_);" d="M600.7,288.6l5.2-67    c0,0-95.6-75.8-101-79c-5.4-3.2-23-1.6-23-1.6l-1,50.6l9.7,29.3l49.6,30.4l5.3,14.8l34.7,19.2l2.4-8L600.7,288.6z"/>
		
			<linearGradient id="SVGID_00000153681069097431639650000006288878109878172826_" gradientUnits="userSpaceOnUse" x1="1974.1193" y1="3926.5969" x2="2054.6997" y2="4004.9155" gradientTransform="matrix(0.2886 0.9574 -0.9574 0.2886 3865.7368 -2758.6147)">
			<stop offset="0.5531" style="stop-color:#FFFFFF"/>
			<stop offset="0.9944" style="stop-color:#9E9E9E"/>
		</linearGradient>
		<polygon style="fill:url(#SVGID_00000153681069097431639650000006288878109878172826_);" points="648.8,242.4 697.8,381.4     587.2,318.4 613.7,226.3   "/>
		
			<linearGradient id="SVGID_00000118358206315045916720000015599736571342772873_" gradientUnits="userSpaceOnUse" x1="2025.9365" y1="3973.9373" x2="2007.2133" y2="3949.3628" gradientTransform="matrix(0.2886 0.9574 -0.9574 0.2886 3865.7368 -2758.6147)">
			<stop offset="0.5531" style="stop-color:#FFFFFF"/>
			<stop offset="0.9944" style="stop-color:#9E9E9E"/>
		</linearGradient>
		<polygon style="fill:url(#SVGID_00000118358206315045916720000015599736571342772873_);" points="636.8,293.3 674.8,316.4     679.2,330.8 632.2,297.5   "/>
		
			<linearGradient id="SVGID_00000038390063151608880280000011976754152363409821_" gradientUnits="userSpaceOnUse" x1="1956.7676" y1="3946.4546" x2="1983.6046" y2="4045.0339" gradientTransform="matrix(0.2886 0.9574 -0.9574 0.2886 3865.7368 -2758.6147)">
			<stop offset="0.5531" style="stop-color:#FFFFFF"/>
			<stop offset="0.9944" style="stop-color:#9E9E9E"/>
		</linearGradient>
		<circle style="fill:url(#SVGID_00000038390063151608880280000011976754152363409821_);" cx="608.5" cy="281" r="39.4"/>
		
			<linearGradient id="SVGID_00000134934836615976116620000010448106836128840110_" gradientUnits="userSpaceOnUse" x1="1925.5271" y1="3967.6895" x2="2074.3259" y2="4062.6375" gradientTransform="matrix(0.2886 0.9574 -0.9574 0.2886 3865.7368 -2758.6147)">
			<stop offset="0" style="stop-color:#FFFFFF"/>
			<stop offset="1" style="stop-color:#000000"/>
		</linearGradient>
		<circle style="fill:url(#SVGID_00000134934836615976116620000010448106836128840110_);" cx="608.4" cy="281.1" r="35.8"/>
		
			<linearGradient id="SVGID_00000134957481398686607430000006613289977993658256_" gradientUnits="userSpaceOnUse" x1="2010.217" y1="4056.0425" x2="1941.1317" y2="3952.5918" gradientTransform="matrix(0.2886 0.9574 -0.9574 0.2886 3865.7368 -2758.6147)">
			<stop offset="0.5531" style="stop-color:#FFFFFF"/>
			<stop offset="0.9944" style="stop-color:#9E9E9E"/>
		</linearGradient>
		<circle style="fill:url(#SVGID_00000134957481398686607430000006613289977993658256_);" cx="608.4" cy="281.1" r="31"/>
		
			<linearGradient id="SVGID_00000124141441255733773940000012398248236495807132_" gradientUnits="userSpaceOnUse" x1="1925.3384" y1="4039.4883" x2="1948.5646" y2="4054.3088" gradientTransform="matrix(0.2886 0.9574 -0.9574 0.2886 3865.7368 -2758.6147)">
			<stop offset="0" style="stop-color:#FFFFFF"/>
			<stop offset="1" style="stop-color:#000000"/>
		</linearGradient>
		<path style="fill:url(#SVGID_00000124141441255733773940000012398248236495807132_);" d="M553.3,263.8c-3,0.9-6.1-0.8-7-3.7    c-0.9-3,0.8-6.1,3.7-7c3-0.9,6.1,0.8,7,3.7C558,259.8,556.3,262.9,553.3,263.8z"/>
		
			<linearGradient id="SVGID_00000003062577055771922110000005792876602015644859_" gradientUnits="userSpaceOnUse" x1="1936.6418" y1="4050.4104" x2="1929.1732" y2="4039.2266" gradientTransform="matrix(0.2886 0.9574 -0.9574 0.2886 3865.7368 -2758.6147)">
			<stop offset="0.5531" style="stop-color:#FFFFFF"/>
			<stop offset="0.9944" style="stop-color:#9E9E9E"/>
		</linearGradient>
		<circle style="fill:url(#SVGID_00000003062577055771922110000005792876602015644859_);" cx="551.7" cy="258.5" r="3.4"/>
		
			<linearGradient id="SVGID_00000085231598703211932370000012225016368581412764_" gradientUnits="userSpaceOnUse" x1="1947.3156" y1="4158.7192" x2="1882.1272" y2="4130.0225" gradientTransform="matrix(0.2886 0.9574 -0.9574 0.2886 3865.7368 -2758.6147)">
			<stop offset="0.5531" style="stop-color:#FFFFFF"/>
			<stop offset="0.9944" style="stop-color:#9E9E9E"/>
		</linearGradient>
		<path style="fill:url(#SVGID_00000085231598703211932370000012225016368581412764_);" d="M475.3,250.6l3.7,48.5l-50.2,6.3    c0,0-10.1-28-10.1-33.6c0-5.6,2.4-14.3,2.4-14.3L475.3,250.6z"/>
		
			<linearGradient id="SVGID_00000021835479882715016920000000660391670872649660_" gradientUnits="userSpaceOnUse" x1="1894.4958" y1="4141.2544" x2="1908.5786" y2="4142.583" gradientTransform="matrix(0.2886 0.9574 -0.9574 0.2886 3865.7368 -2758.6147)">
			<stop offset="0.5531" style="stop-color:#FFFFFF"/>
			<stop offset="0.9944" style="stop-color:#9E9E9E"/>
		</linearGradient>
		<polygon style="fill:url(#SVGID_00000021835479882715016920000000660391670872649660_);" points="422.8,263.5 476,258.9     475.1,250.2   "/>
		
			<linearGradient id="SVGID_00000170975589708142531410000005748120879416243084_" gradientUnits="userSpaceOnUse" x1="1944.6738" y1="4220.5854" x2="1880.5483" y2="4179.4883" gradientTransform="matrix(0.2886 0.9574 -0.9574 0.2886 3865.7368 -2758.6147)">
			<stop offset="0.5531" style="stop-color:#FFFFFF"/>
			<stop offset="0.9944" style="stop-color:#9E9E9E"/>
		</linearGradient>
		<path style="fill:url(#SVGID_00000170975589708142531410000005748120879416243084_);" d="M414.5,258.1l-0.7,15.2l10.9,31.5    c0,0-40.1-4.1-47.9-8.8c-7.8-4.7-22.4-23.1,1.8-32.5L414.5,258.1z"/>
		
			<linearGradient id="SVGID_00000032612194388564799020000006825102862697259666_" gradientUnits="userSpaceOnUse" x1="1886.5034" y1="4192.2744" x2="1895.3289" y2="4193.1069" gradientTransform="matrix(0.2886 0.9574 -0.9574 0.2886 3865.7368 -2758.6147)">
			<stop offset="0.5531" style="stop-color:#FFFFFF"/>
			<stop offset="0.9944" style="stop-color:#9E9E9E"/>
		</linearGradient>
		<polygon style="fill:url(#SVGID_00000032612194388564799020000006825102862697259666_);" points="380,264.1 414.5,262.7     414.5,258.1   "/>
		
			<linearGradient id="SVGID_00000075850646407083468570000014669772673010147986_" gradientUnits="userSpaceOnUse" x1="1847.7701" y1="4126.9043" x2="1813.2107" y2="4111.9146" gradientTransform="matrix(0.2886 0.9574 -0.9574 0.2886 3865.7368 -2758.6147)">
			<stop offset="0.5531" style="stop-color:#FFFFFF"/>
			<stop offset="0.9944" style="stop-color:#9E9E9E"/>
		</linearGradient>
		<polygon style="fill:url(#SVGID_00000075850646407083468570000014669772673010147986_);" points="422.1,171.4 477.1,176.4     478.5,190.3   "/>
		
			<linearGradient id="SVGID_00000000203868188286564180000013278449219900094864_" gradientUnits="userSpaceOnUse" x1="1856.8053" y1="4123.4614" x2="1828.108" y2="4133.7358" gradientTransform="matrix(0.2886 0.9574 -0.9574 0.2886 3865.7368 -2758.6147)">
			<stop offset="0.5531" style="stop-color:#FFFFFF"/>
			<stop offset="0.9944" style="stop-color:#9E9E9E"/>
		</linearGradient>
		<polygon style="fill:url(#SVGID_00000000203868188286564180000013278449219900094864_);" points="432.5,202.3 442.4,185.1     453.5,186.7   "/>
		
			<linearGradient id="SVGID_00000164472712584299944970000012398689266655610801_" gradientUnits="userSpaceOnUse" x1="1874.8589" y1="4100.8013" x2="1836.3741" y2="4114.5796" gradientTransform="matrix(0.2886 0.9574 -0.9574 0.2886 3865.7368 -2758.6147)">
			<stop offset="0.5531" style="stop-color:#FFFFFF"/>
			<stop offset="0.9944" style="stop-color:#9E9E9E"/>
		</linearGradient>
		<polygon style="fill:url(#SVGID_00000164472712584299944970000012398689266655610801_);" points="458.3,206.1 464.6,188.3     470.3,189.1   "/>
		
			<linearGradient id="SVGID_00000037675255119245648150000013681377052516836229_" gradientUnits="userSpaceOnUse" x1="-1860.4567" y1="2149.7778" x2="-1896.4891" y2="2162.6782" gradientTransform="matrix(0.9851 0.1713 -0.1717 0.9853 2688.6475 -1584.5769)">
			<stop offset="0.5531" style="stop-color:#FFFFFF"/>
			<stop offset="0.9944" style="stop-color:#9E9E9E"/>
		</linearGradient>
		<polygon style="fill:url(#SVGID_00000037675255119245648150000013681377052516836229_);" points="465.9,227.8 453,211.5     460.4,212.6   "/>
		
			<linearGradient id="SVGID_00000036236200161501612820000002540175631008166806_" gradientUnits="userSpaceOnUse" x1="-1842.375" y1="2163.2332" x2="-1880.5551" y2="2176.9026" gradientTransform="matrix(0.9851 0.1713 -0.1717 0.9853 2688.6475 -1584.5769)">
			<stop offset="0.5531" style="stop-color:#FFFFFF"/>
			<stop offset="0.9944" style="stop-color:#9E9E9E"/>
		</linearGradient>
		<polygon style="fill:url(#SVGID_00000036236200161501612820000002540175631008166806_);" points="479.8,243 467.4,232.8     469.8,229   "/>
		
			<linearGradient id="SVGID_00000139271236799324219890000001150604189689246852_" gradientUnits="userSpaceOnUse" x1="1868.6" y1="4129.4521" x2="1847.8743" y2="4152.3037" gradientTransform="matrix(0.2886 0.9574 -0.9574 0.2886 3865.7368 -2758.6147)">
			<stop offset="0.5531" style="stop-color:#FFFFFF"/>
			<stop offset="0.9944" style="stop-color:#9E9E9E"/>
		</linearGradient>
		<polygon style="fill:url(#SVGID_00000139271236799324219890000001150604189689246852_);" points="432.4,222.2 429.4,202.6     436.8,206.7   "/>
		
			<linearGradient id="SVGID_00000084495728621724765220000004351820696650737805_" gradientUnits="userSpaceOnUse" x1="-1995.3384" y1="1842.5795" x2="-2013.1454" y2="1862.2128" gradientTransform="matrix(0.996 8.930000e-02 -8.930000e-02 0.996 2614.4666 -1435.7748)">
			<stop offset="0.5531" style="stop-color:#FFFFFF"/>
			<stop offset="0.9944" style="stop-color:#9E9E9E"/>
		</linearGradient>
		<polygon style="fill:url(#SVGID_00000084495728621724765220000004351820696650737805_);" points="460.4,240.7 436.1,228.5     441.9,222.8   "/>
		
			<linearGradient id="SVGID_00000123426149660840860100000009105912336617184904_" gradientUnits="userSpaceOnUse" x1="1825.0763" y1="4168.7617" x2="1813.562" y2="4170.356" gradientTransform="matrix(0.2886 0.9574 -0.9574 0.2886 3865.7368 -2758.6147)">
			<stop offset="0.5531" style="stop-color:#FFFFFF"/>
			<stop offset="0.9944" style="stop-color:#9E9E9E"/>
		</linearGradient>
		<polygon style="fill:url(#SVGID_00000123426149660840860100000009105912336617184904_);" points="383.1,192.7 411.9,174.5     413.7,180.6   "/>
		
			<linearGradient id="SVGID_00000160874625369360004690000016761464260673460912_" gradientUnits="userSpaceOnUse" x1="1836.5764" y1="4203.313" x2="1823.6274" y2="4205.1055" gradientTransform="matrix(0.2886 0.9574 -0.9574 0.2886 3865.7368 -2758.6147)">
			<stop offset="0.5531" style="stop-color:#FFFFFF"/>
			<stop offset="0.9944" style="stop-color:#9E9E9E"/>
		</linearGradient>
		<polygon style="fill:url(#SVGID_00000160874625369360004690000016761464260673460912_);" points="358.8,212.5 376.2,196.6     378.5,200.6   "/>
		<path class="st1" d="M407.1,172.4c-1,0.3-2-0.3-2.3-1.3c-0.3-1,0.3-2,1.3-2.3c1-0.3,2,0.3,2.3,1.3    C408.7,171.1,408.1,172.1,407.1,172.4z"/>
		<path class="st1" d="M471.7,173.8c-1,0.3-2-0.3-2.3-1.3c-0.3-1,0.3-2,1.3-2.3c1-0.3,2,0.3,2.3,1.3    C473.3,172.4,472.7,173.5,471.7,173.8z"/>
		<path class="st1" d="M429.4,195.7c-0.9,0.3-1.8-0.2-2-1.1c-0.3-0.9,0.2-1.8,1.1-2c0.9-0.3,1.8,0.2,2,1.1    C430.7,194.5,430.3,195.4,429.4,195.7z"/>
		<path class="st1" d="M423.9,206.7c-0.9,0.3-1.8-0.2-2-1.1c-0.3-0.9,0.2-1.8,1.1-2c0.9-0.3,1.8,0.2,2,1.1    C425.3,205.5,424.8,206.4,423.9,206.7z"/>
		<path class="st1" d="M441.1,235.3c-0.9,0.3-1.8-0.2-2-1.1s0.2-1.8,1.1-2c0.9-0.3,1.8,0.2,2,1.1C442.4,234.1,441.9,235,441.1,235.3    z"/>
		<path class="st1" d="M455.5,204.5c-0.6,0.2-1.3-0.2-1.5-0.8s0.2-1.3,0.8-1.5c0.6-0.2,1.3,0.2,1.5,0.8    C456.5,203.6,456.1,204.3,455.5,204.5z"/>
		
			<ellipse transform="matrix(0.8465 -0.5323 0.5323 0.8465 -45.2869 274.5305)" class="st1" cx="453.5" cy="215.8" rx="1.2" ry="1.2"/>
		<path class="st1" d="M470.8,220c-0.6,0.2-1.1-0.1-1.3-0.7c-0.2-0.6,0.1-1.1,0.7-1.3c0.6-0.2,1.1,0.1,1.3,0.7    C471.7,219.2,471.4,219.8,470.8,220z"/>
		<path class="st1" d="M470.9,238.8c-0.6,0.2-1.3-0.2-1.5-0.8s0.2-1.3,0.8-1.5c0.6-0.2,1.3,0.2,1.5,0.8    C471.9,237.9,471.6,238.6,470.9,238.8z"/>
		<circle class="st1" cx="370.2" cy="196.9" r="1.9"/>
		<path class="st1" d="M470.8,263.4c-0.9,0-1.7-0.5-1.8-1.1c0-0.7,0.7-1.2,1.6-1.3c0.9,0,1.7,0.5,1.8,1.1    C472.5,262.8,471.8,263.4,470.8,263.4z"/>
		<path class="st1" d="M410,266.5c-0.9,0-1.7-0.5-1.8-1.1c0-0.7,0.7-1.2,1.6-1.3s1.7,0.5,1.8,1.1C411.7,265.9,410.9,266.5,410,266.5    z"/>
	</g>
	<g>
		<path class="st0" d="M264.7,211.8l-25.5-22.3l-35.3-15.3c0,0-33.2,3.2-36.2,4.1c-3,0.9-14.5,3.5-14.5,3.5s-20.1,0.3-24.6,4.4    c-4.5,4.1-9.1,10.4-11.5,12.3c-2.3,1.9-7,8.9-8.7,12c-1.7,3-19.2,32.2-19.2,32.2l-22.8,21.8l-2.5-3.9l-8.4,6.2l-3.3-4.3l-49.4,34    v126l96.1-77l-4.6-8.7l12.9-7.8l-2.7-4.2c0.4,0,0.8-0.1,1.2-0.1c5.8-0.6,13.6-1.6,19.9-3l0,0c1.4-0.3,2.7-0.7,3.9-1    c2.3-0.7,4.3-1.5,5.6-2.3c7.4-4.6,26.6-13.7,37.6-15.9c1.5-0.3,2.9-0.5,4-0.5c4.7,0,13.8-0.6,22.3-1.5c5.4-0.6,10.6-1.2,14.5-2    c2.4-0.5,4.2-0.9,5.3-1.4c2.4-1.1,8.2-3.8,14.2-6.5c3.5-1.6,7.1-3.2,10.1-4.5c3-1.3,5.3-2.3,6.3-2.7c2.6-1,5.7-9.3,3.2-15.7l0,0    c-1.1-2.9-3.5-5.3-7.5-6.6c-13.1-3.9-35.1,0.8-35.1,0.8l-8.6-0.6l3.6-8.9c0,0,0.3-0.4,0.7-1c0.4-0.6,1-1.5,1.7-2.6    c0,0,1.1-0.9,2.6-2c2.9-2.3,7.4-5.9,8.4-6.9c1.5-1.5,4.8-29.7,4.8-29.7c1.6,0.2,3.2,0.4,4.4,0.3c0,0,13.6,9.4,20,10.1    c5.8,0.6,12.4,1.1,16.2-3c0.4-0.4,0.8-0.9,1.1-1.4C264.8,216.2,265.7,213.2,264.7,211.8z"/>
		<g>
			
				<linearGradient id="SVGID_00000118385797575074370550000012933134940111750551_" gradientUnits="userSpaceOnUse" x1="3662.1008" y1="274.7896" x2="3642.05" y2="305.8683" gradientTransform="matrix(-0.9997 2.409434e-02 2.409434e-02 0.9997 3813.2834 -143.5505)">
				<stop offset="0" style="stop-color:#FFFFFF"/>
				<stop offset="0.3998" style="stop-color:#EBECED"/>
				<stop offset="1" style="stop-color:#CFCFCF"/>
			</linearGradient>
			<path style="fill:url(#SVGID_00000118385797575074370550000012933134940111750551_);" d="M156.9,253.5l5.4,4.7     c3.9-12.2,23.7-21.4,23.7-21.4c-0.6-1.4,2.5-10.7,2.5-10.8c-0.2,0-0.4,0.1-0.6,0.1c-2,0-4.4-1.8-4.4-1.8l-2.7-3.4l-1.7-2.3     l-8.1-1.1l-17.5,4l0,0c0,0,0,0,0,0c-0.2,0.8-2.6,12.9-3.9,15.6C148.3,240,156.9,253.5,156.9,253.5z"/>
			
				<linearGradient id="SVGID_00000034783609665409251050000004050807011977550771_" gradientUnits="userSpaceOnUse" x1="3632.6133" y1="282.147" x2="3632.6113" y2="282.1457" gradientTransform="matrix(-0.9997 2.409434e-02 2.409434e-02 0.9997 3813.2834 -143.5505)">
				<stop offset="0" style="stop-color:#FFFFFF"/>
				<stop offset="0.3998" style="stop-color:#EBECED"/>
				<stop offset="1" style="stop-color:#CFCFCF"/>
			</linearGradient>
			<polygon style="fill:url(#SVGID_00000034783609665409251050000004050807011977550771_);" points="188.5,226 188.5,226 188.5,226         "/>
			
				<linearGradient id="SVGID_00000147196142976676006060000014315653999561375935_" gradientUnits="userSpaceOnUse" x1="3626.387" y1="321.0915" x2="3634.6135" y2="306.2838" gradientTransform="matrix(-0.9997 2.409434e-02 2.409434e-02 0.9997 3813.2834 -143.5505)">
				<stop offset="0" style="stop-color:#FFFFFF"/>
				<stop offset="0.3998" style="stop-color:#EBECED"/>
				<stop offset="1" style="stop-color:#CFCFCF"/>
			</linearGradient>
			<polygon style="fill:url(#SVGID_00000147196142976676006060000014315653999561375935_);" points="177.6,262.4 201.5,261.2      205,252.4    "/>
			
				<linearGradient id="SVGID_00000148648074554423642940000011585033359907697599_" gradientUnits="userSpaceOnUse" x1="3627.4143" y1="272.5499" x2="3644.606" y2="255.3583" gradientTransform="matrix(-0.9997 2.409434e-02 2.409434e-02 0.9997 3813.2834 -143.5505)">
				<stop offset="0" style="stop-color:#FFFFFF"/>
				<stop offset="0.3998" style="stop-color:#EBECED"/>
				<stop offset="1" style="stop-color:#CFCFCF"/>
			</linearGradient>
			<path style="fill:url(#SVGID_00000148648074554423642940000011585033359907697599_);" d="M156.1,220.3c0,0,47.5-14,49.1-16.3     c1.6-2.3,3.5-8.6,3.4-12.8c0,0-6.7,13-11.9,14.7C184.3,209.7,156.1,220.3,156.1,220.3z"/>
			
				<linearGradient id="SVGID_00000079473477328318286300000013313907853934936992_" gradientUnits="userSpaceOnUse" x1="3564.2041" y1="282.5844" x2="3586.1953" y2="260.5934" gradientTransform="matrix(-0.9997 2.409434e-02 2.409434e-02 0.9997 3813.2834 -143.5505)">
				<stop offset="0" style="stop-color:#FFFFFF"/>
				<stop offset="0.3998" style="stop-color:#EBECED"/>
				<stop offset="1" style="stop-color:#CFCFCF"/>
			</linearGradient>
			<path style="fill:url(#SVGID_00000079473477328318286300000013313907853934936992_);" d="M227.6,210.5c0,0,13.6,9.4,20,10.1     c5.8,0.6,12.4,1.1,16.2-3c0,0-9.2,2.8-14,1.4C244.9,217.7,227.6,210.5,227.6,210.5z"/>
			
				<linearGradient id="SVGID_00000167371031790166629420000018249277223867881136_" gradientUnits="userSpaceOnUse" x1="3603.3232" y1="285.6582" x2="3614.2419" y2="282.6667" gradientTransform="matrix(-0.9997 2.409434e-02 2.409434e-02 0.9997 3813.2834 -143.5505)">
				<stop offset="0" style="stop-color:#FFFFFF"/>
				<stop offset="0.3998" style="stop-color:#EBECED"/>
				<stop offset="1" style="stop-color:#CFCFCF"/>
			</linearGradient>
			<path style="fill:url(#SVGID_00000167371031790166629420000018249277223867881136_);" d="M210,246.8c2.9-2.3,7.4-5.9,8.4-6.9     c1.5-1.5,4.8-29.7,4.8-29.7l-6.2-1.3l-1.7,10.7l-1.2,13L210,246.8z"/>
			
				<linearGradient id="SVGID_00000003088263611047400820000003301695303338880927_" gradientUnits="userSpaceOnUse" x1="3676.1677" y1="304.6203" x2="3652.1697" y2="296.1886" gradientTransform="matrix(-0.9997 2.409434e-02 2.409434e-02 0.9997 3813.2834 -143.5505)">
				<stop offset="0" style="stop-color:#FFFFFF"/>
				<stop offset="0.3998" style="stop-color:#EBECED"/>
				<stop offset="1" style="stop-color:#CFCFCF"/>
			</linearGradient>
			<path style="fill:url(#SVGID_00000003088263611047400820000003301695303338880927_);" d="M145.8,237.8l2.2,18.5l15.8,9.2     l13.7-3.1l-10.2,0.2l-5.1-4.4l-5.4-4.7c0,0-8.6-13.6-7.3-16.4c1.3-2.7,3.8-14.9,3.9-15.6c0,0,0,0,0,0L145.8,237.8z"/>
			
				<linearGradient id="SVGID_00000080200880307868124000000016186921681515900049_" gradientUnits="userSpaceOnUse" x1="3599.4675" y1="257.2906" x2="3599.8289" y2="268.973" gradientTransform="matrix(-0.9997 2.409434e-02 2.409434e-02 0.9997 3813.2834 -143.5505)">
				<stop offset="0" style="stop-color:#FFFFFF"/>
				<stop offset="0.3998" style="stop-color:#EBECED"/>
				<stop offset="1" style="stop-color:#CFCFCF"/>
			</linearGradient>
			<path style="fill:url(#SVGID_00000080200880307868124000000016186921681515900049_);" d="M227.6,210.5l3.8-5.2l1.6-6.8     c0,0-5.2,8.8-6.9,9.2c-1.7,0.4-17.2-0.9-17.2-0.9l8,2.1l6.2,1.3L227.6,210.5z"/>
			
				<linearGradient id="SVGID_00000116198021965355833930000001360196697567934650_" gradientUnits="userSpaceOnUse" x1="3573.126" y1="336.8781" x2="3593.5771" y2="336.8781" gradientTransform="matrix(-0.9997 2.409434e-02 2.409434e-02 0.9997 3813.2834 -143.5505)">
				<stop offset="0" style="stop-color:#FFFFFF"/>
				<stop offset="0.3998" style="stop-color:#EBECED"/>
				<stop offset="1" style="stop-color:#CFCFCF"/>
			</linearGradient>
			<polygon style="fill:url(#SVGID_00000116198021965355833930000001360196697567934650_);" points="229.6,274.9 230.7,291.5      229.1,292.2 228.6,271.1 249,266.9 230.3,271.9    "/>
			
				<linearGradient id="SVGID_00000080917950820505493080000013215270084618462122_" gradientUnits="userSpaceOnUse" x1="3725.1658" y1="356.8327" x2="3765.9463" y2="356.8327" gradientTransform="matrix(-0.9997 2.409434e-02 2.409434e-02 0.9997 3813.2834 -143.5505)">
				<stop offset="0" style="stop-color:#FFFFFF"/>
				<stop offset="0.3998" style="stop-color:#EBECED"/>
				<stop offset="1" style="stop-color:#CFCFCF"/>
			</linearGradient>
			<polygon style="fill:url(#SVGID_00000080917950820505493080000013215270084618462122_);" points="94.3,336.7 56.2,270.3      98.5,334.2    "/>
			
				<linearGradient id="SVGID_00000032606361710363787800000013122431245270800014_" gradientUnits="userSpaceOnUse" x1="3713.2891" y1="349.9075" x2="3753.468" y2="349.9075" gradientTransform="matrix(-0.9997 2.409434e-02 2.409434e-02 0.9997 3813.2834 -143.5505)">
				<stop offset="0" style="stop-color:#FFFFFF"/>
				<stop offset="0.3998" style="stop-color:#EBECED"/>
				<stop offset="1" style="stop-color:#CFCFCF"/>
			</linearGradient>
			<polygon style="fill:url(#SVGID_00000032606361710363787800000013122431245270800014_);" points="104.6,324.7 68.6,267.8      110.2,324.1    "/>
			
				<linearGradient id="SVGID_00000042718842031638763040000006450262798997668758_" gradientUnits="userSpaceOnUse" x1="3721.7139" y1="379.5827" x2="3728.9863" y2="379.5827" gradientTransform="matrix(-0.9997 2.409434e-02 2.409434e-02 0.9997 3813.2834 -143.5505)">
				<stop offset="0" style="stop-color:#FFFFFF"/>
				<stop offset="0.3998" style="stop-color:#EBECED"/>
				<stop offset="1" style="stop-color:#CFCFCF"/>
			</linearGradient>
			<path style="fill:url(#SVGID_00000042718842031638763040000006450262798997668758_);" d="M97.2,322.1c0,0,5.9,1.6,3.2,4.8     c-2.7,3.2-5.7-0.3-5.9-1.9c0,0,0.1,4.4,3.9,4.3C102.2,329.2,104,322.4,97.2,322.1z"/>
			
				<linearGradient id="SVGID_00000139255796797927736610000013525794103270229393_" gradientUnits="userSpaceOnUse" x1="3734.7192" y1="399.9531" x2="3741.9917" y2="399.9531" gradientTransform="matrix(-0.9997 2.409434e-02 2.409434e-02 0.9997 3813.2834 -143.5505)">
				<stop offset="0" style="stop-color:#FFFFFF"/>
				<stop offset="0.3998" style="stop-color:#EBECED"/>
				<stop offset="1" style="stop-color:#CFCFCF"/>
			</linearGradient>
			<path style="fill:url(#SVGID_00000139255796797927736610000013525794103270229393_);" d="M84.6,342.8c0,0,5.9,1.6,3.2,4.8     c-2.7,3.2-5.7-0.3-5.9-1.9c0,0,0.1,4.4,3.9,4.3C89.7,349.9,91.5,343.1,84.6,342.8z"/>
			
				<linearGradient id="SVGID_00000069367306794897095970000009497425081796303755_" gradientUnits="userSpaceOnUse" x1="3745.1912" y1="408.9129" x2="3752.4636" y2="408.9129" gradientTransform="matrix(-0.9997 2.409434e-02 2.409434e-02 0.9997 3813.2834 -143.5505)">
				<stop offset="0" style="stop-color:#FFFFFF"/>
				<stop offset="0.3998" style="stop-color:#EBECED"/>
				<stop offset="1" style="stop-color:#CFCFCF"/>
			</linearGradient>
			<path style="fill:url(#SVGID_00000069367306794897095970000009497425081796303755_);" d="M74.4,352c0,0,5.9,1.6,3.2,4.8     c-2.7,3.2-5.7-0.3-5.9-1.9c0,0,0.1,4.4,3.9,4.3C79.5,359.1,81.2,352.3,74.4,352z"/>
			
				<linearGradient id="SVGID_00000072976884904692749460000017672519246361854649_" gradientUnits="userSpaceOnUse" x1="3755.4419" y1="417.8427" x2="3762.7144" y2="417.8427" gradientTransform="matrix(-0.9997 2.409434e-02 2.409434e-02 0.9997 3813.2834 -143.5505)">
				<stop offset="0" style="stop-color:#FFFFFF"/>
				<stop offset="0.3998" style="stop-color:#EBECED"/>
				<stop offset="1" style="stop-color:#CFCFCF"/>
			</linearGradient>
			<path style="fill:url(#SVGID_00000072976884904692749460000017672519246361854649_);" d="M64.4,361.2c0,0,5.9,1.6,3.2,4.8     c-2.7,3.2-5.7-0.3-5.9-1.9c0,0,0.1,4.4,3.9,4.3C69.4,368.3,71.2,361.5,64.4,361.2z"/>
			
				<linearGradient id="SVGID_00000058574711436519519090000015657564311606359681_" gradientUnits="userSpaceOnUse" x1="3623.7651" y1="364.7031" x2="3697.7605" y2="364.7031" gradientTransform="matrix(-0.9997 2.409434e-02 2.409434e-02 0.9997 3813.2834 -143.5505)">
				<stop offset="0" style="stop-color:#FFFFFF"/>
				<stop offset="0.3998" style="stop-color:#EBECED"/>
				<stop offset="1" style="stop-color:#CFCFCF"/>
			</linearGradient>
			<path style="fill:url(#SVGID_00000058574711436519519090000015657564311606359681_);" d="M125.6,321.6c1.4-0.3,2.7-0.7,3.9-1     c2.3-0.7,4.3-1.5,5.6-2.3c7.4-4.6,26.6-13.7,37.6-15.9c1.5-0.3,2.9-0.5,4-0.5c4.7,0,13.8-0.6,22.3-1.5c-4.3-0.7-24-3.9-28.6-2.4     c-5.1,1.7-36.4,14.4-38.3,17.1C130.3,317.8,125.8,321.4,125.6,321.6z"/>
			
				<linearGradient id="SVGID_00000007413756400425726340000009203321527386475676_" gradientUnits="userSpaceOnUse" x1="3627.6001" y1="269.5322" x2="3623.2385" y2="276.2926" gradientTransform="matrix(-0.9997 2.409434e-02 2.409434e-02 0.9997 3813.2834 -143.5505)">
				<stop offset="0" style="stop-color:#FFFFFF"/>
				<stop offset="0.3998" style="stop-color:#EBECED"/>
				<stop offset="1" style="stop-color:#CFCFCF"/>
			</linearGradient>
			<path style="fill:url(#SVGID_00000007413756400425726340000009203321527386475676_);" d="M188.8,225.2l12.8-18     C201.6,207.3,199.4,218,188.8,225.2z"/>
			
				<linearGradient id="SVGID_00000084516546628812346940000008222192408870715015_" gradientUnits="userSpaceOnUse" x1="3634.5664" y1="294.4847" x2="3626.521" y2="306.955" gradientTransform="matrix(-0.9997 2.409434e-02 2.409434e-02 0.9997 3813.2834 -143.5505)">
				<stop offset="0" style="stop-color:#FFFFFF"/>
				<stop offset="0.3998" style="stop-color:#EBECED"/>
				<stop offset="1" style="stop-color:#CFCFCF"/>
			</linearGradient>
			<path style="fill:url(#SVGID_00000084516546628812346940000008222192408870715015_);" d="M186.7,237.9c0,0,6.5,10.3,6.6,12.6     C193.4,250.5,194.7,243.7,186.7,237.9z"/>
		</g>
	</g>
</g>
</svg>